<svg width="50" height="50" viewBox="0 0 50 50" fill="none" xmlns="http://www.w3.org/2000/svg">
<circle cx="25" cy="25" r="25" fill="white"/>
<g clip-path="url(#clip0_2410_1016)">
<path fill-rule="evenodd" clip-rule="evenodd" d="M26.337 21.04C26.5668 20.8102 26.9394 20.8102 27.1693 21.04L30.7004 24.5711C30.9302 24.801 30.9302 25.1736 30.7004 25.4034L27.1693 28.9346C26.9394 29.1644 26.5668 29.1644 26.337 28.9346C26.1071 28.7048 26.1071 28.3321 26.337 28.1023L28.8634 25.5758L19.6908 25.5758C19.3658 25.5758 19.1023 25.3123 19.1023 24.9873C19.1023 24.6623 19.3658 24.3988 19.6908 24.3988L28.8634 24.3988L26.337 21.8723C26.1071 21.6425 26.1071 21.2698 26.337 21.04Z" fill="#0083BB"/>
</g>
<defs>
<clipPath id="clip0_2410_1016">
<rect width="14.1246" height="14.1246" fill="white" transform="translate(24.9875 14.9998) rotate(45)"/>
</clipPath>
</defs>
</svg>
