<svg width="50" height="50" viewBox="0 0 50 50" fill="none" xmlns="http://www.w3.org/2000/svg">
<circle cx="25" cy="25" r="25" transform="matrix(-1 0 0 1 50 0)" fill="#0083BB"/>
<g clip-path="url(#clip0_2275_174)">
<path fill-rule="evenodd" clip-rule="evenodd" d="M23.6629 21.0401C23.4331 20.8103 23.0604 20.8103 22.8306 21.0401L19.2995 24.5713C19.0696 24.8011 19.0696 25.1737 19.2995 25.4036L22.8306 28.9347C23.0604 29.1645 23.4331 29.1645 23.6629 28.9347C23.8927 28.7049 23.8927 28.3322 23.6629 28.1024L21.1364 25.5759L30.309 25.5759C30.6341 25.5759 30.8976 25.3125 30.8976 24.9874C30.8976 24.6624 30.6341 24.3989 30.309 24.3989L21.1364 24.3989L23.6629 21.8724C23.8927 21.6426 23.8927 21.27 23.6629 21.0401Z" fill="white"/>
</g>
<defs>
<clipPath id="clip0_2275_174">
<rect width="14.1246" height="14.1246" fill="white" transform="matrix(-0.707107 0.707107 0.707107 0.707107 25.0123 15)"/>
</clipPath>
</defs>
</svg>
