<svg width="50" height="50" viewBox="0 0 50 50" fill="none" xmlns="http://www.w3.org/2000/svg">
<circle cx="25" cy="25" r="25" fill="#0083BB"/>
<g clip-path="url(#clip0_309_887)">
<path fill-rule="evenodd" clip-rule="evenodd" d="M26.337 21.0401C26.5668 20.8103 26.9394 20.8103 27.1693 21.0401L30.7004 24.5713C30.9302 24.8011 30.9302 25.1737 30.7004 25.4036L27.1693 28.9347C26.9394 29.1645 26.5668 29.1645 26.337 28.9347C26.1071 28.7049 26.1071 28.3322 26.337 28.1024L28.8634 25.5759L19.6908 25.5759C19.3658 25.5759 19.1023 25.3125 19.1023 24.9874C19.1023 24.6624 19.3658 24.3989 19.6908 24.3989L28.8634 24.3989L26.337 21.8724C26.1071 21.6426 26.1071 21.27 26.337 21.0401Z" fill="white"/>
</g>
<defs>
<clipPath id="clip0_309_887">
<rect width="14.1246" height="14.1246" fill="white" transform="translate(24.9875 15) rotate(45)"/>
</clipPath>
</defs>
</svg>
