<svg width="21" height="21" viewBox="0 0 21 21" fill="none" xmlns="http://www.w3.org/2000/svg">
<path fill-rule="evenodd" clip-rule="evenodd" d="M5.60882 5.39874C5.20807 5.39874 4.85852 5.39936 4.56641 5.42196C4.24693 5.44668 3.93004 5.50119 3.61765 5.64542C3.16643 5.85374 2.78207 6.1835 2.50755 6.59779C2.3175 6.88462 2.21544 7.18954 2.14242 7.50155C2.07376 7.79494 2.01885 8.15194 1.95574 8.56228L1.25536 13.1147C1.08337 14.2327 0.945357 15.1297 0.897862 15.8573C0.849205 16.6027 0.886818 17.2655 1.13069 17.8887C1.49865 18.829 2.17451 19.6168 3.04793 20.1234C3.62681 20.4592 4.2761 20.5972 5.02028 20.6624C5.74668 20.7261 6.65423 20.7261 7.7853 20.7261H13.2149C14.346 20.7261 15.2535 20.7261 15.9799 20.6624C16.7241 20.5972 17.3734 20.4592 17.9523 20.1234C18.8257 19.6168 19.5016 18.829 19.8695 17.8887C20.1134 17.2655 20.151 16.6027 20.1023 15.8573C20.0549 15.1296 19.9168 14.2326 19.7448 13.1146L19.0445 8.56229C18.9814 8.15195 18.9264 7.79495 18.8578 7.50155C18.7848 7.18953 18.6827 6.88462 18.4927 6.59779C18.2181 6.1835 17.8338 5.85375 17.3826 5.64542C17.0702 5.50119 16.7533 5.44668 16.4338 5.42196C16.2165 5.40514 15.9674 5.4005 15.6891 5.39922C15.4633 2.81379 13.2929 0.785645 10.6489 0.785645C8.00505 0.785645 5.83483 2.81353 5.60882 5.39874ZM7.40529 5.39874H13.8925C13.6748 3.80186 12.3056 2.57136 10.6489 2.57136C8.99227 2.57136 7.62302 3.80186 7.40529 5.39874ZM4.70418 7.20235C4.49233 7.21874 4.40998 7.24645 4.36617 7.26668C4.21577 7.33612 4.08765 7.44604 3.99614 7.58414C3.96949 7.62436 3.92958 7.70154 3.88116 7.90843C3.83014 8.12648 3.78521 8.41446 3.71586 8.8652L3.02671 13.3447C2.84685 14.5138 2.72158 15.3334 2.67978 15.9736C2.63857 16.605 2.68733 16.9663 2.79362 17.2379C3.01439 17.8021 3.41991 18.2748 3.94396 18.5788C4.19625 18.7251 4.54591 18.8283 5.17628 18.8836C5.81545 18.9396 6.64453 18.9404 7.82737 18.9404H13.1728C14.3557 18.9404 15.1848 18.9396 15.8239 18.8836C16.4543 18.8283 16.804 18.7251 17.0562 18.5788C17.5803 18.2748 17.9858 17.8021 18.2066 17.2379C18.3129 16.9663 18.3616 16.605 18.3204 15.9736C18.2786 15.3333 18.1534 14.5138 17.9735 13.3447L17.2843 8.8652C17.215 8.41446 17.1701 8.12648 17.119 7.90843C17.0706 7.70154 17.0307 7.62436 17.0041 7.58414C16.9126 7.44604 16.7844 7.33612 16.634 7.26668C16.5902 7.24645 16.5079 7.21874 16.296 7.20235C16.0728 7.18507 15.7813 7.18445 15.3253 7.18445H5.67496C5.21891 7.18445 4.92745 7.18507 4.70418 7.20235Z" fill="#0083BB"/>
</svg>
