<svg width="24" height="24" viewBox="0 0 24 24" fill="none" xmlns="http://www.w3.org/2000/svg">
<path d="M8.14244 11.9994C8.64897 11.9994 9.15053 11.8997 9.6185 11.7058C10.0865 11.512 10.5117 11.2279 10.8699 10.8697C11.228 10.5115 11.5121 10.0863 11.706 9.61836C11.8998 9.15039 11.9996 8.64883 11.9996 8.1423C11.9996 7.63577 11.8998 7.1342 11.706 6.66623C11.5121 6.19826 11.228 5.77306 10.8699 5.41489C10.5117 5.05672 10.0865 4.7726 9.6185 4.57876C9.15053 4.38492 8.64897 4.28516 8.14244 4.28516C7.11946 4.28516 6.13838 4.69153 5.41503 5.41489C4.69167 6.13824 4.2853 7.11932 4.2853 8.1423C4.2853 9.16528 4.69167 10.1464 5.41503 10.8697C6.13838 11.5931 7.11946 11.9994 8.14244 11.9994ZM14.6567 18.53C15.3107 18.7314 16.1259 18.8566 17.1424 18.8566C22.2853 18.8566 22.2853 15.6423 22.2853 15.6423C22.2853 15.1308 22.0821 14.6403 21.7204 14.2786C21.3588 13.9169 20.8682 13.7137 20.3567 13.7137H14.6516C15.1498 14.2321 15.4275 14.9234 15.4264 15.6423V16.118L15.4239 16.1892C15.4057 16.4754 15.3615 16.7595 15.2919 17.0377C15.1595 17.5649 14.9455 18.0681 14.6576 18.5292M20.1424 8.99944C20.1424 9.39341 20.0648 9.78351 19.9141 10.1475C19.7633 10.5115 19.5423 10.8422 19.2638 11.1208C18.9852 11.3993 18.6545 11.6203 18.2905 11.7711C17.9265 11.9218 17.5364 11.9994 17.1424 11.9994C16.7485 11.9994 16.3584 11.9218 15.9944 11.7711C15.6304 11.6203 15.2997 11.3993 15.0211 11.1208C14.7425 10.8422 14.5216 10.5115 14.3708 10.1475C14.22 9.78351 14.1424 9.39341 14.1424 8.99944C14.1424 8.20379 14.4585 7.44073 15.0211 6.87812C15.5837 6.31551 16.3468 5.99944 17.1424 5.99944C17.9381 5.99944 18.7012 6.31551 19.2638 6.87812C19.8264 7.44073 20.1424 8.20379 20.1424 8.99944ZM1.71387 15.6423C1.71387 15.1308 1.91706 14.6403 2.27873 14.2786C2.64041 13.9169 3.13095 13.7137 3.64244 13.7137H12.6424C13.1539 13.7137 13.6445 13.9169 14.0061 14.2786C14.3678 14.6403 14.571 15.1308 14.571 15.6423V16.0709C14.571 16.0709 14.571 20.5709 8.14244 20.5709C1.71387 20.5709 1.71387 16.0709 1.71387 16.0709V15.6423Z" fill="white"/>
</svg>
