<svg width="31" height="30" viewBox="0 0 31 30" fill="none" xmlns="http://www.w3.org/2000/svg">
<g clip-path="url(#clip0_309_1157)">
<path d="M15.5 0C7.21572 0 0.5 6.71572 0.5 15C0.5 23.2843 7.21572 30 15.5 30C23.7843 30 30.5 23.2843 30.5 15C30.5 6.71572 23.7843 0 15.5 0ZM10.1094 5.95825C10.4184 5.94003 10.6978 6.12475 10.9095 6.45263L12.9603 10.3418C13.1763 10.8026 13.0535 11.2961 12.7315 11.6253L11.7921 12.5647C11.7341 12.6441 11.696 12.7336 11.6951 12.832C12.0553 14.2264 13.148 15.5126 14.1121 16.3971C15.0762 17.2816 16.1123 18.4791 17.4574 18.7628C17.6237 18.8092 17.8273 18.8258 17.9463 18.7152L19.0376 17.6038C19.4143 17.3183 19.9593 17.1799 20.3615 17.4134H20.3798L24.0803 19.5978C24.6235 19.9383 24.6798 20.5964 24.2908 20.9967L21.7421 23.5254C21.3657 23.9114 20.8656 24.0412 20.3798 24.0417C18.2311 23.9774 16.2009 22.9228 14.5333 21.839C11.796 19.8477 9.28518 17.3779 7.70888 14.3939C7.10433 13.1427 6.39415 11.5462 6.46193 10.1496C6.46798 9.62418 6.61012 9.10945 6.98012 8.7708L9.52895 6.22197C9.7275 6.05303 9.92393 5.9692 10.1094 5.95825Z" fill="white"/>
</g>
<defs>
<clipPath id="clip0_309_1157">
<rect width="30" height="30" fill="white" transform="translate(0.5)"/>
</clipPath>
</defs>
</svg>
