<svg width="20" height="16" viewBox="0 0 20 16" fill="none" xmlns="http://www.w3.org/2000/svg">
<g clip-path="url(#clip0_2314_797)">
<path d="M20 13.1923V10.8846H0V13.1923C0 13.8044 0.234126 14.3913 0.650874 14.8241C1.06762 15.2569 1.63285 15.5 2.22222 15.5H17.7778C18.3671 15.5 18.9324 15.2569 19.3491 14.8241C19.7659 14.3913 20 13.8044 20 13.1923Z" fill="#ED1C23"/>
<path d="M20 10.8846H0V2.80769C0 2.19565 0.234126 1.60868 0.650874 1.17591C1.06762 0.743131 1.63285 0.5 2.22222 0.5H17.7778C18.3671 0.5 18.9324 0.743131 19.3491 1.17591C19.7659 1.60868 20 2.19565 20 2.80769V10.8846Z" fill="#EEEEEE"/>
<path d="M0 5.11536H20V10.8846H0V5.11536Z" fill="#005DA4"/>
</g>
<defs>
<clipPath id="clip0_2314_797">
<rect width="20" height="15" fill="white" transform="translate(0 0.5)"/>
</clipPath>
</defs>
</svg>
