<svg width="24" height="24" viewBox="0 0 24 24" fill="none" xmlns="http://www.w3.org/2000/svg">
<path d="M12.8141 12.1968L5.2821 13.4528C5.19551 13.4673 5.11425 13.5043 5.04649 13.5601C4.97873 13.6159 4.92686 13.6886 4.8961 13.7708L2.2991 20.7278C2.0511 21.3678 2.7201 21.9778 3.3341 21.6708L21.3341 12.6708C21.4588 12.6086 21.5636 12.5128 21.6369 12.3943C21.7102 12.2758 21.7491 12.1392 21.7491 11.9998C21.7491 11.8605 21.7102 11.7239 21.6369 11.6054C21.5636 11.4868 21.4588 11.3911 21.3341 11.3288L3.3341 2.32884C2.7201 2.02184 2.0511 2.63284 2.2991 3.27184L4.8971 10.2288C4.92772 10.3113 4.97952 10.3841 5.04729 10.4401C5.11506 10.4962 5.1964 10.5333 5.2831 10.5478L12.8151 11.8028C12.8615 11.811 12.9035 11.8352 12.9337 11.8712C12.964 11.9072 12.9806 11.9528 12.9806 11.9998C12.9806 12.0469 12.964 12.0925 12.9337 12.1285C12.9035 12.1645 12.8615 12.1887 12.8151 12.1968H12.8141Z" fill="#0083BB"/>
</svg>
