<svg width="60" height="60" viewBox="0 0 60 60" fill="none" xmlns="http://www.w3.org/2000/svg">
<rect width="60" height="60" rx="5" fill="#0083BB"/>
<g clip-path="url(#clip0_309_846)">
<path d="M30.4454 32.535C30.4761 32.674 30.5624 32.7954 30.6853 32.8729C30.8083 32.9503 30.9579 32.9775 31.1014 32.9484H31.0974L39.9747 31.078C40.0465 31.0633 40.1144 31.0344 40.1742 30.9934C40.234 30.9523 40.2846 30.8998 40.3227 30.8391L40.3241 30.8365C40.3642 30.7751 40.3912 30.7066 40.4036 30.6349C40.4159 30.5633 40.4134 30.49 40.3961 30.4193L40.3974 30.4232C37.9801 22.4549 33.1094 16.4732 27.0254 13.9932H26.9734C26.8904 13.9931 26.8085 14.0112 26.7337 14.046C26.6589 14.0808 26.5931 14.1315 26.5413 14.1942C26.4894 14.257 26.4528 14.3303 26.4341 14.4086C26.4155 14.4869 26.4152 14.5683 26.4334 14.6467L26.4321 14.6429L30.4454 32.535ZM21.8601 34.8859L28.8721 33.416C29.0146 33.3862 29.1395 33.3037 29.2201 33.186L29.2214 33.1835C29.2629 33.1254 29.2909 33.0593 29.3033 32.9897C29.3158 32.9201 29.3124 32.8487 29.2934 32.7805L29.2947 32.7843L27.0614 22.8217C27.0401 22.7166 26.9857 22.6204 26.9057 22.5464C26.8258 22.4724 26.7241 22.4242 26.6147 22.4084H26.6121C26.5881 22.4025 26.5635 22.3995 26.5387 22.3993H26.5187C26.4226 22.3993 26.3294 22.4236 26.2459 22.4698C26.1624 22.516 26.0929 22.5825 26.0441 22.6628L26.0427 22.6654L25.8867 22.9237C23.8094 26.3415 22.0081 29.2981 21.1934 34.284C21.1799 34.3695 21.1878 34.457 21.2163 34.539C21.2449 34.621 21.2932 34.6952 21.3574 34.7554C21.427 34.8114 21.5085 34.8518 21.5961 34.8737C21.6837 34.8956 21.7752 34.8984 21.8641 34.882H21.8601V34.8859ZM21.1814 40.3264C21.2939 40.3244 21.4019 40.2831 21.4854 40.2101L21.8054 39.9001C22.4111 39.3172 23.2303 38.9901 24.0841 38.9901C24.9379 38.9901 25.757 39.3172 26.3627 39.9001L26.6827 40.2101C26.7597 40.2841 26.8636 40.3259 26.9721 40.3264H26.9854C27.0979 40.3244 27.2059 40.2831 27.2894 40.2101L27.6294 39.8807C28.2329 39.3039 29.0469 38.9808 29.8947 38.9817C30.7827 38.9817 31.5854 39.3292 32.1694 39.8898L32.4814 40.192C32.5628 40.2686 32.6707 40.3133 32.7841 40.3173C32.8966 40.3153 33.0059 40.2741 33.0894 40.2011L33.4014 39.8988C34.0071 39.3159 34.8263 38.9888 35.6801 38.9888C36.5339 38.9888 37.353 39.3159 37.9587 39.8988L38.2787 40.2088C38.3534 40.2799 38.4547 40.3251 38.5681 40.3251H38.5827C38.6952 40.3231 38.8019 40.2818 38.8854 40.2088L39.2054 39.8988C39.5136 39.6006 39.8816 39.3667 40.2867 39.2117L40.3081 39.2039C40.3361 39.1497 40.3721 39.107 40.4001 39.0528L43.7174 32.5002C43.7662 32.4007 43.7859 32.2902 43.7744 32.1807C43.7629 32.0711 43.7206 31.9667 43.6521 31.8789L43.6534 31.8802C43.5823 31.7926 43.4872 31.7262 43.379 31.6886C43.2708 31.6509 43.1538 31.6434 43.0414 31.667L43.0454 31.6657L19.4907 36.6154C19.3851 36.6383 19.2858 36.6831 19.1998 36.7467C19.1137 36.8104 19.043 36.8913 18.9924 36.9841C18.9418 37.0768 18.9126 37.179 18.9068 37.2838C18.901 37.3885 18.9187 37.4932 18.9587 37.5906L18.9574 37.5855L19.7107 39.4377C20.1721 39.625 20.5654 39.8846 20.8961 40.2037C20.9258 40.2418 20.9643 40.2728 21.0085 40.2941C21.0527 40.3154 21.1014 40.3264 21.1507 40.3264L21.1841 40.3251L21.1814 40.3264ZM43.2281 43.0505C42.7747 42.6152 42.1521 42.3478 41.4641 42.3478C40.7761 42.3478 40.1521 42.6165 39.7001 43.0518L39.3801 43.3618C39.1647 43.5679 38.8742 43.6835 38.5714 43.6835C38.2687 43.6835 37.9781 43.5679 37.7627 43.3618L37.4427 43.0518C36.9894 42.6165 36.3667 42.3491 35.6787 42.3491C34.9907 42.3491 34.3667 42.6178 33.9147 43.0531L33.6027 43.3553C33.3879 43.5608 33.098 43.6759 32.7961 43.6757H32.7881C32.6383 43.6758 32.49 43.6467 32.3521 43.5901C32.2142 43.5335 32.0895 43.4506 31.9854 43.3463L31.6721 43.0427C31.2014 42.591 30.5653 42.3379 29.9027 42.3388C29.2174 42.3388 28.5974 42.6036 28.1427 43.0337L27.8027 43.3631C27.5874 43.5692 27.2968 43.6848 26.9941 43.6848C26.6913 43.6848 26.4008 43.5692 26.1854 43.3631L25.8654 43.0531C25.4121 42.6178 24.7894 42.3491 24.1001 42.3491C23.4107 42.3491 22.7881 42.6178 22.3347 43.0531L22.0147 43.3631C21.7994 43.5692 21.5088 43.6848 21.2061 43.6848C20.9033 43.6848 20.6128 43.5692 20.3974 43.3631C19.8614 42.8516 19.1241 42.5351 18.3107 42.5351C17.4974 42.5351 16.7614 42.8516 16.2241 43.3631C16.1604 43.4238 16.1098 43.4962 16.0753 43.576C16.0407 43.6558 16.0229 43.7415 16.0229 43.8281C16.0229 43.9146 16.0407 44.0003 16.0753 44.0802C16.1098 44.16 16.1604 44.2324 16.2241 44.2931C16.3504 44.4166 16.522 44.4867 16.7014 44.4881H16.7067C16.8835 44.4886 17.0532 44.4213 17.1787 44.3008C17.3269 44.1565 17.5031 44.0419 17.6972 43.9638C17.8912 43.8856 18.0993 43.8454 18.3094 43.8454C18.5196 43.8454 18.7276 43.8856 18.9217 43.9638C19.1157 44.0419 19.2919 44.1565 19.4401 44.3008C19.8934 44.7348 20.5161 45.0035 21.2041 45.0035C21.8921 45.0035 22.5161 44.7348 22.9681 44.3008L23.2881 43.9908C23.5035 43.7847 23.794 43.6691 24.0967 43.6691C24.3995 43.6691 24.69 43.7847 24.9054 43.9908L25.2254 44.3008C25.6734 44.7348 26.2921 45.0035 26.9761 45.0035H26.9907H26.9894H26.9934C27.6761 45.0035 28.2947 44.7387 28.7454 44.3086L29.0947 43.9792C29.3101 43.7731 29.6007 43.6575 29.9034 43.6575C30.2062 43.6575 30.4967 43.7731 30.7121 43.9792L31.0241 44.2815C31.4747 44.7206 32.0987 44.9919 32.7881 44.9932H32.8027C33.4867 44.9932 34.1054 44.7245 34.5521 44.2905L34.8641 43.9882C35.0795 43.7821 35.37 43.6665 35.6727 43.6665C35.9755 43.6665 36.266 43.7821 36.4814 43.9882L36.8014 44.2982C37.2547 44.7322 37.8774 45.0009 38.5654 45.0009C39.2534 45.0009 39.8774 44.7322 40.3294 44.2982L40.6494 43.9882C40.8648 43.7821 41.1553 43.6665 41.4581 43.6665C41.7608 43.6665 42.0514 43.7821 42.2667 43.9882C42.3881 44.1045 42.5547 44.1755 42.7401 44.1755H42.7547C42.8425 44.1755 42.9294 44.1582 43.0101 44.1247C43.0908 44.0912 43.1636 44.0421 43.2241 43.9805C43.2885 43.9204 43.3397 43.8483 43.3748 43.7685C43.4098 43.6888 43.4279 43.6031 43.4281 43.5164C43.4282 43.4298 43.4103 43.344 43.3755 43.2641C43.3407 43.1843 43.2896 43.1121 43.2254 43.0518L43.2281 43.0505Z" fill="white"/>
<path d="M18.2774 41.1806H18.2828C18.7228 41.1806 19.1201 41.3537 19.4081 41.634C19.8614 42.0693 20.4841 42.3366 21.1721 42.3366C21.8601 42.3366 22.4841 42.068 22.9361 41.6327L23.2561 41.3227C23.4715 41.1166 23.762 41.001 24.0648 41.001C24.3675 41.001 24.6581 41.1166 24.8734 41.3227L25.1934 41.6327C25.6414 42.068 26.2601 42.3366 26.9454 42.3366H26.9588H26.9614C27.6441 42.3366 28.2628 42.0719 28.7134 41.6417L29.0628 41.3124C29.2798 41.1047 29.573 40.989 29.878 40.9907C30.183 40.9924 30.4749 41.1113 30.6894 41.3214L31.0014 41.6236C31.4521 42.0615 32.0761 42.3341 32.7654 42.3354H32.7788C33.4628 42.3354 34.0814 42.0667 34.5294 41.6314L34.8414 41.3291C35.0568 41.123 35.3473 41.0074 35.6501 41.0074C35.9528 41.0074 36.2434 41.123 36.4588 41.3291L36.7788 41.6391C37.2321 42.0744 37.8548 42.3418 38.5428 42.3418C39.2308 42.3418 39.8548 42.0731 40.3068 41.6379L40.6268 41.3279C40.8421 41.1217 41.1327 41.0062 41.4354 41.0062C41.7382 41.0062 42.0287 41.1217 42.2441 41.3279C42.3654 41.4441 42.5321 41.5151 42.7161 41.5151H42.7308C42.8185 41.5151 42.9054 41.4978 42.9861 41.4643C43.0668 41.4308 43.1396 41.3817 43.2001 41.3201C43.2638 41.2594 43.3144 41.187 43.3489 41.1072C43.3834 41.0274 43.4012 40.9417 43.4012 40.8551C43.4012 40.7685 43.3834 40.6829 43.3489 40.603C43.3144 40.5232 43.2638 40.4508 43.2001 40.3901C42.7468 39.9548 42.1241 39.6874 41.4361 39.6874C40.7481 39.6874 40.1241 39.9561 39.6721 40.3914L39.3521 40.7014C39.1367 40.9075 38.8462 41.0231 38.5434 41.0231C38.2407 41.0231 37.9501 40.9075 37.7348 40.7014L37.4148 40.3914C36.9614 39.9561 36.3388 39.6887 35.6508 39.6887C34.9628 39.6887 34.3388 39.9574 33.8868 40.3927L33.5748 40.6949C33.3599 40.9004 33.07 41.0155 32.7681 41.0153H32.7601C32.6103 41.0154 32.4621 40.9863 32.3241 40.9297C32.1862 40.8732 32.0615 40.7902 31.9574 40.6859L31.6441 40.3824C31.1734 39.9315 30.538 39.679 29.8761 39.6797C29.1908 39.6797 28.5694 39.9445 28.1161 40.3746L27.7761 40.704C27.5607 40.9101 27.2702 41.0257 26.9674 41.0257C26.6647 41.0257 26.3741 40.9101 26.1588 40.704L25.8388 40.394C25.3854 39.9587 24.7628 39.69 24.0734 39.69C23.3841 39.69 22.7614 39.9587 22.3081 40.394L21.9881 40.704C21.7727 40.9101 21.4822 41.0257 21.1794 41.0257C20.8767 41.0257 20.5861 40.9101 20.3708 40.704C19.8348 40.1925 19.0974 39.876 18.2841 39.876C17.4708 39.876 16.7348 40.1925 16.1974 40.704C16.1329 40.7642 16.0816 40.8365 16.0465 40.9163C16.0115 40.9962 15.9934 41.0822 15.9934 41.169C15.9934 41.2558 16.0115 41.3417 16.0465 41.4216C16.0816 41.5015 16.1329 41.5737 16.1974 41.634C16.3235 41.7579 16.4951 41.8285 16.6748 41.8303H16.6801C16.8568 41.8308 17.0265 41.7635 17.1521 41.643C17.4334 41.3576 17.8281 41.1793 18.2681 41.1793H18.2748L18.2774 41.1806Z" fill="white"/>
</g>
<defs>
<clipPath id="clip0_309_846">
<rect width="28" height="31" fill="white" transform="translate(16 14)"/>
</clipPath>
</defs>
</svg>
