<svg width="40" height="40" viewBox="0 0 40 40" fill="none" xmlns="http://www.w3.org/2000/svg">
<rect width="40" height="40" rx="5" fill="#0083BB"/>
<g clip-path="url(#clip0_309_871)">
<path d="M20 30C22.6522 30 25.1957 28.9464 27.0711 27.0711C28.9464 25.1957 30 22.6522 30 20C30 17.3478 28.9464 14.8043 27.0711 12.9289C25.1957 11.0536 22.6522 10 20 10C17.3478 10 14.8043 11.0536 12.9289 12.9289C11.0536 14.8043 10 17.3478 10 20C10 22.6522 11.0536 25.1957 12.9289 27.0711C14.8043 28.9464 17.3478 30 20 30ZM16.4102 22.7148C17.1094 23.5234 18.3047 24.375 20 24.375C21.6953 24.375 22.8906 23.5234 23.5898 22.7148C23.8164 22.4531 24.2109 22.4258 24.4727 22.6523C24.7344 22.8789 24.7617 23.2734 24.5352 23.5352C23.6641 24.5352 22.1523 25.625 20 25.625C17.8477 25.625 16.3359 24.5352 15.4648 23.5352C15.2383 23.2734 15.2656 22.8789 15.5273 22.6523C15.7891 22.4258 16.1836 22.4531 16.4102 22.7148ZM18.5 18.9375L18.4922 18.9297C18.4844 18.9219 18.4766 18.9102 18.4648 18.8945C18.4414 18.8633 18.4023 18.8164 18.3555 18.7617C18.2578 18.6523 18.1211 18.5039 17.957 18.3594C17.6133 18.0547 17.2227 17.8125 16.875 17.8125C16.5273 17.8125 16.1367 18.0547 15.793 18.3594C15.6289 18.5039 15.4922 18.6523 15.3945 18.7617C15.3477 18.8164 15.3086 18.8633 15.2852 18.8945C15.2734 18.9102 15.2617 18.9219 15.2578 18.9297L15.25 18.9375C15.168 19.0469 15.0273 19.0898 14.9023 19.0469C14.7773 19.0039 14.6875 18.8867 14.6875 18.75C14.6875 18.0508 14.9492 17.3594 15.3359 16.8438C15.7188 16.3359 16.2695 15.9375 16.875 15.9375C17.4805 15.9375 18.0312 16.3359 18.4141 16.8438C18.8008 17.3594 19.0625 18.0508 19.0625 18.75C19.0625 18.8828 18.9766 19.0039 18.8477 19.0469C18.7188 19.0898 18.5781 19.0469 18.5 18.9375ZM24.75 18.9375L24.7422 18.9297C24.7344 18.9219 24.7266 18.9102 24.7148 18.8945C24.6914 18.8633 24.6523 18.8164 24.6055 18.7617C24.5078 18.6523 24.3711 18.5039 24.207 18.3594C23.8633 18.0547 23.4727 17.8125 23.125 17.8125C22.7773 17.8125 22.3867 18.0547 22.043 18.3594C21.8789 18.5039 21.7422 18.6523 21.6445 18.7617C21.5977 18.8164 21.5586 18.8633 21.5352 18.8945C21.5234 18.9102 21.5117 18.9219 21.5078 18.9297L21.5 18.9375C21.418 19.0469 21.2773 19.0898 21.1523 19.0469C21.0273 19.0039 20.9375 18.8867 20.9375 18.75C20.9375 18.0508 21.1992 17.3594 21.5859 16.8438C21.9688 16.3359 22.5195 15.9375 23.125 15.9375C23.7305 15.9375 24.2812 16.3359 24.6641 16.8438C25.0508 17.3594 25.3125 18.0508 25.3125 18.75C25.3125 18.8828 25.2266 19.0039 25.0977 19.0469C24.9688 19.0898 24.8281 19.0469 24.75 18.9375Z" fill="white"/>
</g>
<defs>
<clipPath id="clip0_309_871">
<rect width="20" height="20" fill="white" transform="translate(10 10)"/>
</clipPath>
</defs>
</svg>
