<svg width="45" height="45" viewBox="0 0 45 45" fill="none" xmlns="http://www.w3.org/2000/svg">
<rect width="45" height="45" rx="5" fill="#0083BB"/>
<path d="M33.7247 11.3887L32.8107 11.4212C32.8107 11.4212 32.8513 12.5054 32.836 14.1979H33.745C33.7653 12.4845 33.7247 11.3887 33.7247 11.3887ZM20.2677 13.8957C18.0942 13.8957 15.9208 14.2883 13.9525 15.0713C13.6712 15.2054 13.331 15.6116 13.0547 16.2566C12.7774 16.9015 12.5596 17.7546 12.4225 18.6941C12.1539 20.5273 12.2001 22.6804 12.5662 24.214C12.5723 24.1988 12.7663 24.3714 13.1771 24.5034C13.6143 24.6456 14.2364 24.7675 14.9697 24.8691C15.6821 24.9655 16.4946 25.0366 17.363 25.0874C17.4646 24.7066 17.5814 24.3054 17.6982 23.9042C17.0583 23.8738 16.454 23.8331 15.9157 23.7773C15.3013 23.7163 14.7762 23.6402 14.3613 23.5437C14.1541 23.4929 13.9754 23.437 13.8159 23.371C13.6565 23.2999 13.4996 23.2238 13.3741 23.0155L13.3447 22.9698L13.3284 22.914C12.9907 21.8019 13.0979 20.2683 13.429 18.887C13.595 18.1964 13.8205 17.5515 14.1054 17.0183C14.3908 16.4851 14.7249 16.0484 15.2302 15.8554L15.2353 15.8503H15.2454C16.7638 15.3476 18.5157 15.0988 20.2677 15.0988C22.0196 15.0988 23.7716 15.3476 25.2849 15.8503L25.3001 15.8554L25.3153 15.8605C25.7978 16.0585 26.0974 16.4902 26.3716 17.0183C26.6509 17.5464 26.8794 18.1913 27.0521 18.8769C27.4024 20.2581 27.5446 21.7917 27.2044 22.914L27.1892 22.9698L27.1587 23.0155C27.0317 23.2238 26.8794 23.2999 26.7169 23.371C26.5595 23.437 26.3767 23.4929 26.1735 23.5437C25.7571 23.6402 25.229 23.7163 24.6196 23.7773C24.0509 23.8331 23.411 23.8788 22.7306 23.9093C22.8575 24.3054 22.9845 24.7015 23.1064 25.0773L23.1114 25.0925C24.0001 25.0417 24.838 24.9655 25.5642 24.8691C26.2954 24.7675 26.92 24.6456 27.3567 24.5034C27.7681 24.3765 27.961 24.1988 27.9661 24.214C28.3317 22.6855 28.3317 20.5323 28.0423 18.689C27.895 17.7495 27.6716 16.8913 27.3974 16.2413C27.1333 15.6015 26.7982 15.1902 26.5696 15.0713C24.6044 14.2873 22.436 13.8957 20.2677 13.8957ZM32.8208 15.114C32.7802 17.2163 32.6532 19.9738 32.3079 22.7261C31.9524 25.5445 31.3685 28.3577 30.4493 30.4144C29.9923 31.4452 29.4489 32.2831 28.8396 32.8417C28.2251 33.4054 27.5649 33.6999 26.7677 33.6999C24.4317 33.6999 22.9235 32.9331 21.9739 32.1765C21.5118 31.8058 21.1919 31.4452 20.9837 31.1761C21.1411 31.0948 21.2833 30.9933 21.4204 30.8816C21.7454 30.6175 22.0349 30.2874 22.2786 29.9675C22.7712 29.3226 23.1114 28.6827 23.1114 28.6827L22.2989 28.2562C22.2989 28.2562 21.9942 28.8351 21.5524 29.4089C21.3341 29.6984 21.0853 29.9777 20.8466 30.1706C20.6079 30.3636 20.3946 30.4499 20.2677 30.4499C20.1407 30.4499 19.9274 30.3636 19.6888 30.1706C19.4501 29.9777 19.2013 29.6984 18.9829 29.4089C18.5411 28.8351 18.2364 28.2562 18.2364 28.2562L17.4239 28.6827C17.4239 28.6827 17.7642 29.3226 18.2567 29.9675C18.5005 30.2874 18.7899 30.6175 19.1149 30.8816C19.3689 31.0898 19.6583 31.2675 19.9884 31.3335C20.1966 31.6585 20.6485 32.2831 21.4052 32.8874C22.4868 33.7558 24.2286 34.614 26.7677 34.614C27.7985 34.614 28.7126 34.1976 29.454 33.5171C30.2005 32.8316 30.7946 31.8921 31.2872 30.7902C32.2724 28.5812 32.8564 25.707 33.2118 22.8378C33.5622 20.0347 33.6892 17.2417 33.7349 15.114H32.8208ZM20.2677 16.023C18.6071 16.023 16.9466 16.2515 15.5501 16.7136C15.4028 16.7695 15.1439 17.0183 14.9113 17.4499C14.6787 17.8816 14.4695 18.4706 14.3182 19.1003C14.0287 20.3089 13.9657 21.6952 14.1739 22.528C14.18 22.528 14.179 22.528 14.1856 22.5331C14.2633 22.5687 14.3989 22.6093 14.5721 22.6499C14.9179 22.7363 15.4181 22.8073 16.0071 22.8683C16.586 22.9241 17.2564 22.9698 17.9673 23.0003C18.1501 22.4062 18.3431 21.8222 18.5411 21.2991C18.7544 20.7253 18.9778 20.2226 19.2216 19.8366C19.3435 19.6437 19.4653 19.4761 19.6228 19.3339C19.7802 19.1968 19.9833 19.0749 20.2372 19.0749C20.4911 19.0749 20.6993 19.2019 20.8517 19.339C21.004 19.4812 21.1259 19.6488 21.2376 19.8468C21.4712 20.2327 21.6794 20.7355 21.8876 21.3042C22.0755 21.8273 22.2634 22.4113 22.4513 23.0054C23.2079 22.9749 23.9189 22.9292 24.5282 22.8683C25.1173 22.8073 25.6149 22.7363 25.9603 22.6499C26.1329 22.6093 26.27 22.5687 26.3462 22.5331C26.3564 22.528 26.3513 22.528 26.3564 22.528C26.5595 21.7003 26.4732 20.314 26.1685 19.1054C26.006 18.4706 25.7927 17.8816 25.5642 17.4448C25.3407 17.0132 25.0767 16.7542 24.9751 16.7085C23.5837 16.2515 21.9232 16.023 20.2677 16.023ZM20.2321 20.0144V20.0195C20.1763 20.0652 20.0899 20.1718 19.9985 20.3191C19.8107 20.6187 19.6024 21.0808 19.3942 21.6241C19.0185 22.6195 18.6478 23.8839 18.3329 25.0265L20.2372 26.296L22.1364 25.0316C21.7607 23.8788 21.3899 22.6144 21.0243 21.6191C20.8263 21.0706 20.6282 20.6085 20.4556 20.3089C20.3692 20.1667 20.2829 20.0601 20.2321 20.0144Z" fill="white"/>
</svg>
