<svg width="21" height="21" viewBox="0 0 21 21" fill="none" xmlns="http://www.w3.org/2000/svg">
<path d="M10.5 0.314819C4.87778 0.314819 0.314819 4.87778 0.314819 10.5C0.314819 16.1222 4.87778 20.6852 10.5 20.6852C16.1222 20.6852 20.6852 16.1222 20.6852 10.5C20.6852 4.87778 16.1222 0.314819 10.5 0.314819ZM15.2259 7.24075C15.0732 8.85001 14.4111 12.7611 14.075 14.5639C13.9324 15.3278 13.6472 15.5824 13.3824 15.613C12.7917 15.6639 12.3435 15.2259 11.7732 14.8491C10.8769 14.2583 10.3676 13.8917 9.50186 13.3213C8.49352 12.6593 9.14538 12.2926 9.72593 11.7019C9.87871 11.5491 12.4861 9.17593 12.537 8.96204C12.5441 8.92965 12.5432 8.89601 12.5343 8.86406C12.5254 8.83211 12.5089 8.80282 12.4861 8.77871C12.425 8.72778 12.3435 8.74815 12.2722 8.75834C12.1806 8.77871 10.7546 9.72593 7.97408 11.6C7.56667 11.875 7.2 12.0176 6.87408 12.0074C6.50741 11.9972 5.81482 11.8037 5.29537 11.6306C4.65371 11.4269 4.15463 11.3148 4.19538 10.9583C4.21575 10.775 4.47038 10.5917 4.94908 10.3982C7.92315 9.10463 9.89908 8.24908 10.887 7.84167C13.7185 6.66019 14.2991 6.45649 14.6861 6.45649C14.7676 6.45649 14.9611 6.47686 15.0833 6.57871C15.1852 6.66019 15.2157 6.77223 15.2259 6.85371C15.2157 6.91482 15.2361 7.09815 15.2259 7.24075Z" fill="#0083BB"/>
</svg>
