<svg width="31" height="30" viewBox="0 0 31 30" fill="none" xmlns="http://www.w3.org/2000/svg">
<path fill-rule="evenodd" clip-rule="evenodd" d="M22.6154 0.772931C17.9292 -0.257644 13.0694 -0.257644 8.38319 0.772931L7.87825 0.882835C6.56006 1.17278 5.34938 1.81656 4.3807 2.74265C3.41201 3.66875 2.72325 4.84091 2.39091 6.12891C1.20303 10.7339 1.20303 15.5579 2.39091 20.1629C2.70784 21.3913 3.34927 22.5154 4.25016 23.4212C5.15106 24.3271 6.27939 24.9825 7.52077 25.3211L8.21339 29.389C8.2355 29.5181 8.2924 29.6391 8.37818 29.7393C8.46395 29.8395 8.57546 29.9152 8.70109 29.9586C8.82672 30.002 8.96188 30.0115 9.09249 29.986C9.2231 29.9606 9.34439 29.9012 9.44372 29.8139L13.5116 26.234C16.5652 26.4173 19.6298 26.1771 22.6154 25.5204L23.1218 25.4105C24.44 25.1205 25.6507 24.4767 26.6194 23.5506C27.5881 22.6245 28.2769 21.4524 28.6092 20.1644C29.7969 15.5593 29.7969 10.7354 28.6092 6.13038C28.2767 4.84218 27.5877 3.6699 26.6188 2.74378C25.6498 1.81767 24.4388 1.174 23.1204 0.8843L22.6154 0.772931ZM9.64034 6.01022C9.36351 5.97058 9.08123 6.0254 8.84047 6.16555H8.81962C8.26105 6.48793 7.7576 6.89385 7.32862 7.37156C6.97114 7.77747 6.77751 8.18778 6.72686 8.58344C6.69707 8.8179 6.71793 9.05529 6.78793 9.27949L6.81474 9.29415C7.21691 10.4562 7.74122 11.5743 8.3817 12.6264C9.20756 14.1043 10.2239 15.471 11.4054 16.6929L11.4411 16.7427L11.4977 16.7837L11.532 16.8233L11.5737 16.8585C12.82 18.0244 14.2125 19.029 15.7175 19.8479C17.4379 20.7696 18.482 21.2048 19.1091 21.3865V21.3953C19.2923 21.451 19.4592 21.4759 19.6275 21.4759C20.1615 21.4371 20.667 21.2235 21.0633 20.8692C21.5474 20.4472 21.9571 19.9504 22.2758 19.398V19.3877C22.5752 18.8309 22.4739 18.3063 22.042 17.9502C21.1743 17.2043 20.2361 16.5419 19.2402 15.9719C18.5729 15.6158 17.8952 15.8312 17.6211 16.1917L17.0357 16.9185C16.7348 17.279 16.1897 17.2292 16.1897 17.2292L16.1748 17.238C12.107 16.2166 11.0211 12.1648 11.0211 12.1648C11.0211 12.1648 10.9705 11.6139 11.3473 11.3325L12.0801 10.7522C12.4317 10.4709 12.6759 9.80557 12.2991 9.14907C11.7236 8.16838 11.0516 7.24565 10.2927 6.39415C10.1272 6.19375 9.89514 6.05727 9.63736 6.00875L9.64034 6.01022ZM16.5129 4.24883C16.3154 4.24883 16.126 4.32602 15.9863 4.46343C15.8466 4.60083 15.7682 4.7872 15.7682 4.98152C15.7682 5.17584 15.8466 5.3622 15.9863 5.49961C16.126 5.63702 16.3154 5.71421 16.5129 5.71421C18.3971 5.71421 19.9611 6.31941 21.1989 7.48C21.8349 8.11451 22.3309 8.86625 22.6556 9.6898C22.9818 10.5148 23.1308 11.3955 23.0921 12.2777C23.0879 12.3739 23.1031 12.47 23.1368 12.5604C23.1704 12.6508 23.2218 12.7339 23.2881 12.8048C23.4219 12.948 23.608 13.033 23.8055 13.0411C24.003 13.0493 24.1958 12.9799 24.3413 12.8483C24.4868 12.7167 24.5733 12.5335 24.5816 12.3392C24.6278 11.2541 24.4447 10.1713 24.0438 9.15933C23.6413 8.14255 23.0309 7.21787 22.2505 6.44251L22.2356 6.42785C20.6999 4.98445 18.7561 4.24883 16.5129 4.24883ZM16.4623 6.65792C16.2647 6.65792 16.0753 6.73511 15.9356 6.87252C15.796 7.00993 15.7175 7.19629 15.7175 7.39061C15.7175 7.58493 15.796 7.7713 15.9356 7.9087C16.0753 8.04611 16.2647 8.1233 16.4623 8.1233H16.4876C17.846 8.21855 18.835 8.66403 19.5277 9.39526C20.2382 10.1485 20.6061 11.0848 20.5778 12.2425C20.5732 12.4368 20.6473 12.625 20.7838 12.7655C20.9202 12.9061 21.1079 12.9876 21.3054 12.992C21.5029 12.9965 21.6941 12.9236 21.837 12.7894C21.9799 12.6551 22.0627 12.4705 22.0673 12.2762C22.103 10.7566 21.6055 9.44508 20.6195 8.3988V8.39587C19.6111 7.332 18.2273 6.76929 16.5621 6.65938L16.5367 6.65645L16.4623 6.65792ZM16.434 9.11244C16.3343 9.10379 16.2339 9.11498 16.1387 9.14535C16.0435 9.17573 15.9556 9.22466 15.88 9.28922C15.8045 9.35378 15.743 9.43266 15.6991 9.52113C15.6553 9.60961 15.63 9.70587 15.6248 9.80417C15.6196 9.90247 15.6345 10.0008 15.6688 10.0933C15.7031 10.1858 15.7559 10.2705 15.8242 10.3424C15.8925 10.4144 15.9749 10.472 16.0663 10.512C16.1578 10.5519 16.2565 10.5733 16.3565 10.5749C16.9791 10.6071 17.3768 10.7918 17.6271 11.0394C17.8788 11.2885 18.0665 11.6886 18.1007 12.3143C18.1026 12.4126 18.1245 12.5096 18.1653 12.5994C18.206 12.6892 18.2648 12.77 18.3379 12.837C18.4111 12.904 18.4972 12.9558 18.5912 12.9894C18.6852 13.0229 18.785 13.0376 18.8848 13.0323C18.9847 13.0271 19.0824 13.0022 19.1722 12.959C19.262 12.9159 19.3421 12.8554 19.4076 12.7811C19.4732 12.7069 19.5229 12.6204 19.5537 12.5268C19.5846 12.4333 19.596 12.3346 19.5872 12.2366C19.5396 11.3574 19.2596 10.5808 18.6861 10.0093C18.1097 9.43775 17.3247 9.15933 16.434 9.11244Z" fill="#7E7CEF"/>
</svg>
