<svg width="31" height="30" viewBox="0 0 31 30" fill="none" xmlns="http://www.w3.org/2000/svg">
<g clip-path="url(#clip0_309_1153)">
<path d="M15.5 0C23.7845 0 30.5 6.7155 30.5 15C30.5 23.2845 23.7845 30 15.5 30C12.8492 30.0043 10.245 29.3027 7.95502 27.9675L0.506021 30L2.53402 22.548C1.19766 20.2573 0.495592 17.652 0.500021 15C0.500021 6.7155 7.21552 0 15.5 0ZM10.388 7.95L10.088 7.962C9.8938 7.97382 9.70399 8.02485 9.53001 8.11199C9.3673 8.20414 9.21876 8.31933 9.08902 8.45399C8.90902 8.6235 8.80702 8.77049 8.69752 8.91299C8.1427 9.63435 7.84398 10.52 7.84852 11.43C7.85152 12.165 8.04352 12.8805 8.34352 13.5495C8.95702 14.9025 9.96651 16.335 11.2985 17.6625C11.6195 17.982 11.9345 18.303 12.2735 18.6015C13.9286 20.0587 15.9009 21.1095 18.0335 21.6705L18.8855 21.801C19.163 21.816 19.4405 21.795 19.7195 21.7815C20.1564 21.7589 20.5829 21.6406 20.969 21.435C21.1654 21.3338 21.3571 21.2237 21.5435 21.105C21.5435 21.105 21.608 21.063 21.731 20.97C21.9335 20.82 22.058 20.7135 22.226 20.538C22.3505 20.409 22.4585 20.2575 22.541 20.085C22.658 19.8405 22.775 19.374 22.823 18.9855C22.859 18.6885 22.8485 18.5265 22.844 18.426C22.838 18.2655 22.7045 18.099 22.559 18.0285L21.686 17.637C21.686 17.637 20.381 17.0685 19.583 16.7055C19.4995 16.669 19.41 16.6482 19.319 16.644C19.2164 16.6334 19.1127 16.645 19.0149 16.6779C18.9171 16.7107 18.8275 16.7641 18.752 16.8345C18.7445 16.8315 18.644 16.917 17.5595 18.231C17.4973 18.3146 17.4115 18.3778 17.3132 18.4126C17.2149 18.4473 17.1085 18.452 17.0075 18.426C16.9098 18.3998 16.8141 18.3667 16.721 18.327C16.535 18.249 16.4705 18.219 16.343 18.165C15.4821 17.7893 14.685 17.2817 13.9805 16.6605C13.7915 16.4955 13.616 16.3155 13.436 16.1415C12.8459 15.5763 12.3316 14.937 11.906 14.2395L11.8175 14.097C11.7539 14.0012 11.7026 13.8979 11.6645 13.7895C11.6075 13.569 11.756 13.392 11.756 13.392C11.756 13.392 12.1205 12.993 12.29 12.777C12.455 12.567 12.5945 12.363 12.6845 12.2175C12.8615 11.9325 12.917 11.64 12.824 11.4135C12.404 10.3875 11.969 9.36599 11.522 8.35199C11.4335 8.15099 11.171 8.00699 10.9325 7.97849C10.8515 7.96949 10.7705 7.96049 10.6895 7.95449C10.4881 7.94449 10.2862 7.94649 10.085 7.96049L10.388 7.95Z" fill="#60BF51"/>
</g>
<defs>
<clipPath id="clip0_309_1153">
<rect width="30" height="30" fill="white" transform="translate(0.5)"/>
</clipPath>
</defs>
</svg>
