<svg width="50" height="50" viewBox="0 0 50 50" fill="none" xmlns="http://www.w3.org/2000/svg">
<circle cx="25" cy="25" r="25" fill="white"/>
<g clip-path="url(#clip0_309_712)">
<path fill-rule="evenodd" clip-rule="evenodd" d="M26.3371 21.0401C26.5669 20.8103 26.9396 20.8103 27.1694 21.0401L30.7005 24.5713C30.9304 24.8011 30.9304 25.1737 30.7005 25.4036L27.1694 28.9347C26.9396 29.1645 26.5669 29.1645 26.3371 28.9347C26.1073 28.7049 26.1073 28.3322 26.3371 28.1024L28.8636 25.5759L19.691 25.5759C19.3659 25.5759 19.1024 25.3125 19.1024 24.9874C19.1024 24.6624 19.3659 24.3989 19.691 24.3989L28.8636 24.3989L26.3371 21.8724C26.1073 21.6426 26.1073 21.27 26.3371 21.0401Z" fill="#0083BB"/>
</g>
<defs>
<clipPath id="clip0_309_712">
<rect width="14.1246" height="14.1246" fill="white" transform="translate(24.9877 15) rotate(45)"/>
</clipPath>
</defs>
</svg>
