<svg width="42" height="42" viewBox="0 0 42 42" fill="none" xmlns="http://www.w3.org/2000/svg">
<circle cx="21" cy="21" r="21" fill="white"/>
<path fill-rule="evenodd" clip-rule="evenodd" d="M19.4233 12.0939C18.9573 11.5846 18.9923 10.794 19.5016 10.3279C20.0108 9.8618 20.8015 9.89682 21.2676 10.4061L30.3146 20.2917C30.7213 20.4979 31 20.92 31 21.4072C31 21.895 30.7206 22.3175 30.3132 22.5235L21.2676 32.4075C20.8015 32.9168 20.0108 32.9518 19.5016 32.4857C18.9923 32.0197 18.9573 31.229 19.4233 30.7197L26.8019 22.6572H12.2491C11.5587 22.6572 10.9991 22.0976 10.9991 21.4072C10.9991 20.7169 11.5587 20.1572 12.2491 20.1572H26.8026L19.4233 12.0939Z" fill="#03A93C"/>
</svg>
