<svg width="24" height="35" viewBox="0 0 24 35" fill="none" xmlns="http://www.w3.org/2000/svg">
<path d="M17.4173 26.25C18.0673 24.0693 19.4147 22.21 20.7486 20.3574C21.1007 19.8721 21.4527 19.3867 21.7913 18.8945C23.1319 16.9463 23.9173 14.5879 23.9173 12.0381C23.9173 5.38672 18.5819 0 12.0007 0C5.4194 0 0.0839844 5.38672 0.0839844 12.0312C0.0839844 14.5811 0.869401 16.9463 2.21003 18.8877C2.54857 19.3799 2.90065 19.8652 3.25273 20.3506C4.59336 22.2031 5.94075 24.0693 6.58398 26.2432H17.4173V26.25ZM12.0007 35C14.9934 35 17.4173 32.5527 17.4173 29.5312V28.4375H6.58398V29.5312C6.58398 32.5527 9.00794 35 12.0007 35ZM6.58398 12.0312C6.58398 12.6328 6.09648 13.125 5.50065 13.125C4.90482 13.125 4.41732 12.6328 4.41732 12.0312C4.41732 7.7998 7.8095 4.375 12.0007 4.375C12.5965 4.375 13.084 4.86719 13.084 5.46875C13.084 6.07031 12.5965 6.5625 12.0007 6.5625C9.00794 6.5625 6.58398 9.00977 6.58398 12.0312Z" fill="#0083BB"/>
</svg>
