<svg width="24" height="24" viewBox="0 0 24 24" fill="none" xmlns="http://www.w3.org/2000/svg">
<circle opacity="0.3" cx="12" cy="12" r="11.75" stroke="#181818" stroke-width="0.5"/>
<g opacity="0.3">
<path d="M9.42645 8.51331L11.9998 11.0866L14.5598 8.52665C14.6163 8.46646 14.6845 8.41831 14.7601 8.38509C14.8357 8.35187 14.9172 8.33426 14.9998 8.33331C15.1766 8.33331 15.3462 8.40355 15.4712 8.52858C15.5962 8.6536 15.6664 8.82317 15.6664 8.99998C15.668 9.08171 15.6528 9.1629 15.6219 9.23857C15.5909 9.31423 15.5448 9.38277 15.4864 9.43998L12.8931 12L15.4864 14.5933C15.5963 14.7008 15.6608 14.8464 15.6664 15C15.6664 15.1768 15.5962 15.3464 15.4712 15.4714C15.3462 15.5964 15.1766 15.6666 14.9998 15.6666C14.9148 15.6702 14.8301 15.656 14.7509 15.625C14.6717 15.594 14.5998 15.5469 14.5398 15.4866L11.9998 12.9133L9.43312 15.48C9.37679 15.5382 9.30949 15.5846 9.23512 15.6166C9.16074 15.6487 9.08076 15.6657 8.99978 15.6666C8.82297 15.6666 8.6534 15.5964 8.52838 15.4714C8.40335 15.3464 8.33312 15.1768 8.33312 15C8.33156 14.9182 8.34673 14.8371 8.37768 14.7614C8.40863 14.6857 8.45472 14.6172 8.51312 14.56L11.1064 12L8.51312 9.40665C8.40324 9.29915 8.33881 9.15359 8.33312 8.99998C8.33312 8.82317 8.40335 8.6536 8.52838 8.52858C8.6534 8.40355 8.82297 8.33331 8.99978 8.33331C9.15978 8.33531 9.31312 8.39998 9.42645 8.51331Z" fill="#181818"/>
</g>
</svg>
