<svg width="24" height="24" viewBox="0 0 24 24" fill="none" xmlns="http://www.w3.org/2000/svg">
<path fill-rule="evenodd" clip-rule="evenodd" d="M3.6 2.25C3.24196 2.25 2.89858 2.39223 2.64541 2.64541C2.39223 2.89858 2.25 3.24196 2.25 3.6V20.4C2.25 21.146 2.854 21.75 3.6 21.75H20.4C20.5773 21.75 20.7528 21.7151 20.9166 21.6472C21.0804 21.5794 21.2292 21.48 21.3546 21.3546C21.48 21.2292 21.5794 21.0804 21.6472 20.9166C21.7151 20.7528 21.75 20.5773 21.75 20.4V3.6C21.75 3.42272 21.7151 3.24717 21.6472 3.08338C21.5794 2.91959 21.48 2.77076 21.3546 2.64541C21.2292 2.52005 21.0804 2.42061 20.9166 2.35276C20.7528 2.28492 20.5773 2.25 20.4 2.25H3.6ZM13.87 6.25C11.35 6.25 9.237 7.939 8.516 10.25H8C7.80109 10.25 7.61032 10.329 7.46967 10.4697C7.32902 10.6103 7.25 10.8011 7.25 11C7.25 11.1989 7.32902 11.3897 7.46967 11.5303C7.61032 11.671 7.80109 11.75 8 11.75H8.255C8.24801 11.9166 8.24801 12.0834 8.255 12.25H8C7.80109 12.25 7.61032 12.329 7.46967 12.4697C7.32902 12.6103 7.25 12.8011 7.25 13C7.25 13.1989 7.32902 13.3897 7.46967 13.5303C7.61032 13.671 7.80109 13.75 8 13.75H8.516C9.237 16.061 11.35 17.75 13.87 17.75C14.753 17.75 15.59 17.54 16.336 17.168C16.5086 17.076 16.6385 16.9203 16.6979 16.7339C16.7573 16.5476 16.7415 16.3454 16.654 16.1705C16.5665 15.9956 16.4141 15.8618 16.2294 15.7976C16.0446 15.7334 15.8421 15.744 15.665 15.827C15.1078 16.106 14.4931 16.2508 13.87 16.25C12.21 16.25 10.763 15.23 10.114 13.75H14C14.1989 13.75 14.3897 13.671 14.5303 13.5303C14.671 13.3897 14.75 13.1989 14.75 13C14.75 12.8011 14.671 12.6103 14.5303 12.4697C14.3897 12.329 14.1989 12.25 14 12.25H9.757C9.74769 12.0835 9.74769 11.9165 9.757 11.75H14C14.1989 11.75 14.3897 11.671 14.5303 11.5303C14.671 11.3897 14.75 11.1989 14.75 11C14.75 10.8011 14.671 10.6103 14.5303 10.4697C14.3897 10.329 14.1989 10.25 14 10.25H10.114C10.763 8.77 12.21 7.75 13.87 7.75C14.514 7.75 15.122 7.902 15.664 8.173C15.7521 8.21803 15.8483 8.24516 15.947 8.25284C16.0457 8.26052 16.1449 8.24859 16.239 8.21774C16.333 8.18689 16.42 8.13772 16.495 8.07308C16.5699 8.00844 16.6314 7.9296 16.6757 7.84111C16.7201 7.75262 16.7464 7.65623 16.7534 7.55749C16.7603 7.45875 16.7476 7.35962 16.716 7.26581C16.6844 7.17201 16.6346 7.08538 16.5694 7.01092C16.5041 6.93647 16.4248 6.87566 16.336 6.832C15.5706 6.44855 14.7261 6.24925 13.87 6.25Z" fill="#0083BB"/>
</svg>
