<svg width="60" height="60" viewBox="0 0 60 60" fill="none" xmlns="http://www.w3.org/2000/svg">
<rect width="60" height="60" rx="5" fill="#0083BB"/>
<path d="M23.7993 16.4934C19.4898 16.5126 15.8688 17.7162 14.3455 18.1174C26.334 17.025 28.1216 20.0798 27.7894 23.43C26.5795 25.9433 26.1124 27.1023 25.9355 28.1163C25.9288 28.1105 25.9226 28.1047 25.9158 28.0988C25.9067 28.2006 25.8989 28.3025 25.8923 28.4045C25.8144 29.0242 25.8315 29.6327 25.8363 30.5198C25.8517 33.3721 27.1878 35.7396 28.1979 38.7447C26.9089 41.0678 24.0206 41.428 20.8176 41.4021C21.8589 41.6835 24.6287 43.7366 33.0317 40.1891C31.8105 42.7252 26.2631 44.5912 26.1022 45.5486C32.4577 45.0054 36.5167 42.2109 37.5534 37.9983C39.3381 36.8923 40.9415 35.4967 42.2829 32.122C42.6134 31.1192 44.0336 31.0254 45.128 30.7693C45.6654 30.6436 45.9782 29.5819 45.128 29.4635C44.0087 29.2149 42.3996 29.3467 41.77 28.2042C36.9039 18.6662 29.705 16.4675 23.7993 16.4934ZM17.523 24.3413C17.1013 24.3386 16.7585 24.4069 16.5272 24.5602C20.0457 26.509 21.3601 27.3521 21.3885 28.0175C21.4088 29.2445 17.6693 29.5774 17.5642 30.233C17.5242 30.482 20.5672 32.1422 21.0154 32.7748C21.5583 33.7508 19.8026 35.1579 17.5175 36.6924C17.9943 37.4413 22.3333 35.7895 25.2664 34.2484C24.7773 31.9412 24.4646 29.5912 24.8131 27.2393C22.662 25.697 19.3508 24.3526 17.523 24.3411V24.3413ZM38.096 26.6061C39.2368 26.6061 40.1745 27.5437 40.1745 28.6846C40.1745 29.8254 39.2368 30.7631 38.096 30.7631C36.9551 30.7631 36.0176 29.8254 36.0176 28.6846C36.0176 27.5437 36.9553 26.6061 38.096 26.6061ZM33.3428 27.4318C33.609 27.4359 33.8764 27.4511 34.1447 27.4786L34.177 27.482L34.2088 27.4887C34.7072 27.5955 34.9099 27.978 35.0525 28.3228C35.195 28.6674 35.2769 29.0628 35.3185 29.4862C35.4015 30.3329 35.3472 31.2716 34.922 32.0083C34.6686 32.4475 34.292 32.6004 33.829 32.7763C33.3661 32.9522 32.7988 33.0875 32.1655 33.1636C30.8986 33.3157 29.3676 33.2344 28.0074 32.609L26.6859 32.0016L28.0526 31.5044C28.714 31.2639 29.1979 30.9824 29.546 30.7345C28.9845 30.5005 28.289 30.1165 27.6569 29.4807L26.9729 28.7928L27.8951 28.4913C29.6635 27.9131 31.4786 27.4029 33.3427 27.432L33.3428 27.4318ZM38.096 27.8014C37.6013 27.8014 37.2129 28.1899 37.2129 28.6846C37.2129 29.0684 37.447 29.3873 37.7828 29.5113C37.7048 29.3819 37.6636 29.2355 37.6632 29.0865C37.6632 28.8574 37.7595 28.6377 37.931 28.4757C38.1026 28.3137 38.3352 28.2227 38.5778 28.2227C38.6806 28.2231 38.7827 28.2398 38.8796 28.2723C38.7336 27.9904 38.4409 27.8014 38.0961 27.8014L38.096 27.8014ZM33.3238 28.6277C32.0284 28.6097 30.7001 28.8993 29.3445 29.2982C30.1233 29.7762 30.8094 29.8866 30.8094 29.8866L31.7879 30.036L31.1999 30.8322C31.1999 30.8322 30.9644 31.1434 30.523 31.4976C30.353 31.6339 30.1369 31.7825 29.8956 31.9326C30.6198 32.0528 31.3652 32.0558 32.0228 31.9767C32.5711 31.911 33.0582 31.7905 33.4047 31.6589C33.7511 31.5273 33.9388 31.3209 33.8868 31.4108C34.0775 31.0805 34.1945 30.2721 34.1289 29.6028C34.0961 29.2682 34.024 28.9635 33.948 28.7798C33.9161 28.7028 33.8907 28.6775 33.8759 28.6594C33.6924 28.6441 33.5087 28.6303 33.3239 28.6278L33.3238 28.6277Z" fill="white"/>
</svg>
