<svg width="41" height="44" viewBox="0 0 41 44" fill="none" xmlns="http://www.w3.org/2000/svg">
<path fill-rule="evenodd" clip-rule="evenodd" d="M9.48338 5.90625C7.48647 5.90625 5.57131 6.67998 4.15902 8.0573C2.74672 9.43462 1.95292 11.3028 1.95215 13.251V32.8444C1.95215 34.7931 2.74562 36.662 4.15799 38.0399C5.57037 39.4179 7.48597 40.192 9.48338 40.192H29.5667C31.5636 40.1912 33.4784 39.4168 34.8902 38.0389C36.3019 36.6611 37.095 34.7926 37.095 32.8444V13.251C37.0942 11.3033 36.3008 9.43554 34.8892 8.05829C33.4775 6.68105 31.5631 5.907 29.5667 5.90625H9.48338ZM31.7329 13.2623C31.7329 13.8235 31.5044 14.3618 31.0976 14.7587C30.6908 15.1555 30.1391 15.3785 29.5638 15.3785C28.9885 15.3785 28.4368 15.1555 28.03 14.7587C27.6232 14.3618 27.3946 13.8235 27.3946 13.2623C27.3946 12.701 27.6232 12.1627 28.03 11.7659C28.4368 11.369 28.9885 11.146 29.5638 11.146C30.1391 11.146 30.6908 11.369 31.0976 11.7659C31.5044 12.1627 31.7329 12.701 31.7329 13.2623ZM19.5279 17.1787C17.9324 17.1787 16.4023 17.797 15.2742 18.8977C14.146 19.9983 13.5122 21.4911 13.5122 23.0477C13.5122 24.6043 14.146 26.0971 15.2742 27.1977C16.4023 28.2984 17.9324 28.9167 19.5279 28.9167C21.1234 28.9167 22.6535 28.2984 23.7817 27.1977C24.9098 26.0971 25.5436 24.6043 25.5436 23.0477C25.5436 21.4911 24.9098 19.9983 23.7817 18.8977C22.6535 17.797 21.1234 17.1787 19.5279 17.1787ZM10.6171 23.0477C10.6171 20.7428 11.5556 18.5323 13.2262 16.9025C14.8967 15.2727 17.1625 14.3571 19.525 14.3571C21.8875 14.3571 24.1533 15.2727 25.8239 16.9025C27.4944 18.5323 28.4329 20.7428 28.4329 23.0477C28.4329 25.3526 27.4944 27.5631 25.8239 29.1929C24.1533 30.8227 21.8875 31.7383 19.525 31.7383C17.1625 31.7383 14.8967 30.8227 13.2262 29.1929C11.5556 27.5631 10.6171 25.3526 10.6171 23.0477Z" fill="white"/>
</svg>
