<svg width="40" height="40" viewBox="0 0 40 40" fill="none" xmlns="http://www.w3.org/2000/svg">
<rect width="40" height="40" rx="5" fill="#0083BB"/>
<path d="M27.7363 23.2323L28.3532 19.6623C28.3894 19.4531 28.3794 19.2384 28.324 19.0334C28.2686 18.8285 28.1691 18.638 28.0324 18.4755C27.8957 18.313 27.7252 18.1823 27.5327 18.0926C27.3403 18.0029 27.1305 17.9563 26.9182 17.9561H22.3848C22.279 17.9561 22.1745 17.9331 22.0785 17.8886C21.9825 17.8442 21.8973 17.7794 21.8288 17.6987C21.7604 17.618 21.7103 17.5234 21.6821 17.4214C21.6539 17.3195 21.6483 17.2126 21.6656 17.1082L22.2457 13.5688C22.3398 12.9941 22.313 12.4061 22.1669 11.8424C22.1044 11.6095 21.9841 11.3962 21.817 11.2222C21.65 11.0483 21.4416 10.9194 21.2114 10.8476L21.0846 10.8064C20.7977 10.7143 20.4864 10.7356 20.2148 10.8659C19.9173 11.0094 19.7003 11.2711 19.6198 11.5817L19.2033 13.1864C19.0707 13.6971 18.878 14.1903 18.6293 14.6556C18.2662 15.3354 17.7044 15.8806 17.1199 16.3837L15.8608 17.4687C15.6861 17.6196 15.5497 17.8098 15.4627 18.0237C15.3757 18.2375 15.3406 18.4689 15.3603 18.6989L16.0708 26.9178C16.1021 27.2813 16.2686 27.6198 16.5373 27.8665C16.8061 28.1133 17.1576 28.2502 17.5224 28.2504H21.5894C24.6362 28.2504 27.2358 26.1277 27.7363 23.2323Z" fill="white"/>
<path fill-rule="evenodd" clip-rule="evenodd" d="M12.5969 17.2995C12.766 17.2921 12.9315 17.3503 13.0586 17.462C13.1858 17.5737 13.2649 17.7302 13.2794 17.8988L14.1282 27.7303C14.1426 27.8767 14.127 28.0245 14.0823 28.1647C14.0376 28.3049 13.9649 28.4345 13.8684 28.5456C13.772 28.6567 13.654 28.7469 13.5215 28.8109C13.389 28.8748 13.2449 28.9111 13.0979 28.9175C12.9509 28.9238 12.8042 28.9002 12.6667 28.848C12.5291 28.7957 12.4037 28.716 12.298 28.6137C12.1923 28.5113 12.1086 28.3885 12.052 28.2527C11.9954 28.117 11.967 27.9711 11.9687 27.824V17.9548C11.9688 17.7857 12.0342 17.6231 12.1512 17.501C12.2683 17.3789 12.4279 17.3067 12.5969 17.2995Z" fill="white"/>
</svg>
