<svg width="40" height="40" viewBox="0 0 40 40" fill="none" xmlns="http://www.w3.org/2000/svg">
<rect width="40" height="40" rx="5" fill="#0083BB"/>
<path d="M24.119 12.291C22.3455 12.291 20.83 13.5552 19.9974 14.4267C19.1648 13.5552 17.6527 12.291 15.88 12.291C12.8246 12.291 10.6914 14.4208 10.6914 17.4695C10.6914 20.8287 13.3407 22.9999 15.9037 25.1001C17.1137 26.0926 18.366 27.1182 19.3264 28.2554C19.488 28.4458 19.7249 28.5558 19.9737 28.5558H20.0228C20.2724 28.5558 20.5085 28.4449 20.6693 28.2554C21.6313 27.1182 22.8828 26.0918 24.0936 25.1001C26.6558 23.0008 29.3068 20.8296 29.3068 17.4695C29.3068 14.4208 27.1736 12.291 24.119 12.291Z" fill="white"/>
</svg>
