<svg width="14" height="14" viewBox="0 0 14 14" fill="none" xmlns="http://www.w3.org/2000/svg">
<path d="M4.50152 6.99936C4.78157 6.99936 5.05888 6.9442 5.31761 6.83703C5.57635 6.72986 5.81144 6.57277 6.00946 6.37475C6.20749 6.17672 6.36457 5.94163 6.47174 5.6829C6.57891 5.42417 6.63407 5.14686 6.63407 4.86681C6.63407 4.58676 6.57891 4.30945 6.47174 4.05071C6.36457 3.79198 6.20749 3.55689 6.00946 3.35886C5.81144 3.16084 5.57635 3.00375 5.31761 2.89658C5.05888 2.78941 4.78157 2.73425 4.50152 2.73425C3.93593 2.73425 3.39351 2.95893 2.99358 3.35886C2.59365 3.75879 2.36897 4.30122 2.36897 4.86681C2.36897 5.43239 2.59365 5.97482 2.99358 6.37475C3.39351 6.77468 3.93593 6.99936 4.50152 6.99936ZM8.10317 10.61C8.46475 10.7214 8.91543 10.7906 9.47748 10.7906C12.3209 10.7906 12.3209 9.01344 12.3209 9.01344C12.3209 8.73064 12.2085 8.45943 12.0086 8.25947C11.8086 8.0595 11.5374 7.94716 11.2546 7.94716H8.10032C8.37575 8.23374 8.52932 8.61596 8.52873 9.01344V9.27645L8.52731 9.31579C8.51725 9.47406 8.49282 9.6311 8.45433 9.78495C8.38113 10.0764 8.26281 10.3546 8.10364 10.6095M11.1361 5.34071C11.1361 5.55852 11.0932 5.77421 11.0099 5.97545C10.9265 6.17668 10.8043 6.35953 10.6503 6.51355C10.4963 6.66757 10.3135 6.78975 10.1122 6.8731C9.91098 6.95646 9.69529 6.99936 9.47748 6.99936C9.25966 6.99936 9.04398 6.95646 8.84274 6.8731C8.6415 6.78975 8.45865 6.66757 8.30463 6.51355C8.15061 6.35953 8.02844 6.17668 7.94508 5.97545C7.86173 5.77421 7.81882 5.55852 7.81882 5.34071C7.81882 4.9008 7.99358 4.47892 8.30463 4.16786C8.61569 3.8568 9.03758 3.68205 9.47748 3.68205C9.91738 3.68205 10.3393 3.8568 10.6503 4.16786C10.9614 4.47892 11.1361 4.9008 11.1361 5.34071ZM0.947266 9.01344C0.947266 8.73064 1.05961 8.45943 1.25957 8.25947C1.45954 8.0595 1.73075 7.94716 2.01354 7.94716H6.9895C7.27229 7.94716 7.5435 8.0595 7.74347 8.25947C7.94344 8.45943 8.05578 8.73064 8.05578 9.01344V9.25039C8.05578 9.25039 8.05578 11.7384 4.50152 11.7384C0.947266 11.7384 0.947266 9.25039 0.947266 9.25039V9.01344Z" fill="#004F66"/>
</svg>
