<svg width="40" height="40" viewBox="0 0 40 40" fill="none" xmlns="http://www.w3.org/2000/svg">
<rect width="40" height="40" rx="5" fill="#0083BB"/>
<path d="M20 22.5C21.3807 22.5 22.5 21.3807 22.5 20C22.5 18.6193 21.3807 17.5 20 17.5C18.6193 17.5 17.5 18.6193 17.5 20C17.5 21.3807 18.6193 22.5 20 22.5Z" fill="white"/>
<path d="M26.6666 13.3337H24.025L22.9916 12.2087C22.8363 12.0382 22.6472 11.9019 22.4362 11.8086C22.2253 11.7154 21.9973 11.6671 21.7666 11.667H18.2333C17.7666 11.667 17.3166 11.867 17 12.2087L15.975 13.3337H13.3333C12.4166 13.3337 11.6666 14.0837 11.6666 15.0003V25.0003C11.6666 25.917 12.4166 26.667 13.3333 26.667H26.6666C27.5833 26.667 28.3333 25.917 28.3333 25.0003V15.0003C28.3333 14.0837 27.5833 13.3337 26.6666 13.3337ZM20 24.167C17.7 24.167 15.8333 22.3003 15.8333 20.0003C15.8333 17.7003 17.7 15.8337 20 15.8337C22.3 15.8337 24.1666 17.7003 24.1666 20.0003C24.1666 22.3003 22.3 24.167 20 24.167Z" fill="white"/>
</svg>
