<svg width="16" height="16" viewBox="0 0 16 16" fill="none" xmlns="http://www.w3.org/2000/svg">
<circle opacity="0.3" cx="8" cy="8" r="7.75" stroke="#181818" stroke-width="0.5"/>
<path opacity="0.3" d="M12 7.90625C12 8.03057 11.9506 8.1498 11.8627 8.23771C11.7748 8.32561 11.6556 8.375 11.5312 8.375H8.5625V11.3438C8.5625 11.4681 8.51311 11.5873 8.42521 11.6752C8.3373 11.7631 8.21807 11.8125 8.09375 11.8125C7.96943 11.8125 7.8502 11.7631 7.76229 11.6752C7.67439 11.5873 7.625 11.4681 7.625 11.3438V8.375H4.65625C4.53193 8.375 4.4127 8.32561 4.32479 8.23771C4.23689 8.1498 4.1875 8.03057 4.1875 7.90625C4.1875 7.78193 4.23689 7.6627 4.32479 7.57479C4.4127 7.48689 4.53193 7.4375 4.65625 7.4375H7.625V4.46875C7.625 4.34443 7.67439 4.2252 7.76229 4.13729C7.8502 4.04939 7.96943 4 8.09375 4C8.21807 4 8.3373 4.04939 8.42521 4.13729C8.51311 4.2252 8.5625 4.34443 8.5625 4.46875V7.4375H11.5312C11.6556 7.4375 11.7748 7.48689 11.8627 7.57479C11.9506 7.6627 12 7.78193 12 7.90625Z" fill="#181818"/>
</svg>
