<svg width="46" height="46" viewBox="0 0 46 46" fill="none" xmlns="http://www.w3.org/2000/svg">
<path d="M8.38 9.38C6 11.7827 6 15.6247 6 23.32V24.68C6 32.364 6 36.206 8.38 38.62C10.7827 41 14.6247 41 22.32 41H23.68C31.364 41 35.206 41 37.62 38.62C40 36.2173 40 32.3753 40 24.68V23.32C40 15.636 40 11.794 37.62 9.38C35.2173 7 31.3753 7 23.68 7H22.32C14.636 7 10.794 7 8.38 9.38ZM11.7347 17.3473H15.6333C15.758 23.83 18.614 26.5727 20.8807 27.1393V17.3473H24.5413V22.9347C26.774 22.6967 29.1313 20.1467 29.9247 17.336H33.574C33.2765 18.791 32.6822 20.169 31.8281 21.3838C30.974 22.5987 29.8784 23.6244 28.61 24.3967C30.0256 25.101 31.2757 26.0975 32.2779 27.3204C33.2801 28.5434 34.0116 29.9649 34.424 31.4913H30.4007C29.5393 28.8053 27.386 26.72 24.5413 26.4367V31.4913H24.088C16.336 31.4913 11.916 26.1873 11.7347 17.3473Z" fill="white"/>
</svg>
