<svg width="60" height="60" viewBox="0 0 60 60" fill="none" xmlns="http://www.w3.org/2000/svg">
<rect width="60" height="60" rx="5" fill="#0083BB"/>
<path d="M28.5454 30.7222V33.5822C28.5454 33.7882 28.6196 33.9649 28.7679 34.1123C28.9163 34.2596 29.0938 34.3333 29.3003 34.3333H30.6996C30.9245 34.3333 31.1068 34.2596 31.2465 34.1123C31.3851 33.9649 31.4545 33.7887 31.4545 33.5836V30.7222H34.3345C34.5604 30.7222 34.7432 30.6485 34.8828 30.5012C35.0215 30.3538 35.0908 30.1776 35.0908 29.9725V28.5829C35.0908 28.3595 35.0215 28.1785 34.8828 28.0398C34.7432 27.9021 34.5609 27.8333 34.3359 27.8333H31.4545V24.9733C31.4545 24.7489 31.3851 24.5674 31.2465 24.4287C31.1068 24.291 30.9241 24.2222 30.6981 24.2222H29.2988C29.0923 24.2222 28.9148 24.291 28.7665 24.4287C28.6191 24.5674 28.5454 24.7489 28.5454 24.9733V27.8333H25.6654C25.4579 27.8333 25.2799 27.9021 25.1316 28.0398C24.9832 28.1785 24.909 28.3595 24.909 28.5829V29.9725C24.909 30.1776 24.9832 30.3538 25.1316 30.5012C25.2799 30.6485 25.4574 30.7222 25.6639 30.7222H28.5454ZM29.9999 42.7717C29.8671 42.7717 29.7279 42.7597 29.5825 42.7356C29.437 42.7115 29.3013 42.6754 29.1752 42.6273C26.3117 41.5439 24.0363 39.7066 22.349 37.1153C20.6618 34.5239 19.8181 31.7188 19.8181 28.6999V22.5134C19.8181 22.0223 19.9611 21.5779 20.2472 21.1802C20.5333 20.7824 20.8993 20.4936 21.3454 20.3135L29.1781 17.4246C29.4613 17.3225 29.7352 17.2715 29.9999 17.2715C30.2647 17.2715 30.5386 17.3225 30.8218 17.4246L38.6545 20.3135C39.1005 20.4936 39.4666 20.7824 39.7527 21.1802C40.0387 21.5788 40.1818 22.0232 40.1818 22.5134V28.6999C40.1818 31.7188 39.3381 34.5239 37.6508 37.1153C35.9636 39.7066 33.6882 41.5439 30.8247 42.6273C30.6986 42.6754 30.5628 42.7115 30.4174 42.7356C30.2719 42.7597 30.1328 42.7717 29.9999 42.7717Z" fill="white"/>
</svg>
