<svg width="18" height="20" viewBox="0 0 18 20" fill="none" xmlns="http://www.w3.org/2000/svg">
<path d="M9.28623 11.9586C9.30599 12.0482 9.36144 12.1266 9.44047 12.1766C9.5195 12.2265 9.61567 12.244 9.70795 12.2253H9.70537L15.4122 11.0186C15.4584 11.0091 15.502 10.9905 15.5405 10.964C15.5789 10.9374 15.6114 10.9036 15.6359 10.8644L15.6368 10.8628C15.6626 10.8232 15.6799 10.7789 15.6879 10.7327C15.6958 10.6865 15.6942 10.6392 15.6831 10.5936L15.6839 10.5961C14.1299 5.45526 10.9988 1.59609 7.08766 -0.00390624H7.05423C7.00088 -0.00391874 6.94822 0.00773434 6.90013 0.0301903C6.85204 0.0526462 6.80977 0.0853299 6.77643 0.125822C6.7431 0.166313 6.71956 0.213576 6.70755 0.264111C6.69555 0.314645 6.69539 0.367158 6.70709 0.41776L6.70623 0.41526L9.28623 11.9586ZM3.76709 13.4753L8.2748 12.5269C8.36642 12.5078 8.44671 12.4545 8.49852 12.3786L8.49937 12.3769C8.52607 12.3395 8.54405 12.2968 8.55204 12.2519C8.56003 12.207 8.55786 12.1609 8.54566 12.1169L8.54652 12.1194L7.1108 5.69193C7.09708 5.62411 7.06212 5.56208 7.01072 5.51434C6.95931 5.46659 6.89397 5.43548 6.82366 5.42526H6.82195C6.80653 5.42147 6.7907 5.41952 6.7748 5.41943H6.76195C6.70013 5.4194 6.64023 5.43506 6.58656 5.46488C6.53289 5.4947 6.48816 5.53763 6.4568 5.58943L6.45595 5.59109L6.35566 5.75776C5.02023 7.96276 3.86223 9.87026 3.33852 13.0869C3.32986 13.1421 3.33491 13.1985 3.35325 13.2515C3.37159 13.3044 3.40269 13.3522 3.44395 13.3911C3.48868 13.4272 3.54108 13.4533 3.5974 13.4674C3.65371 13.4815 3.71253 13.4833 3.76966 13.4728H3.76709V13.4753ZM3.3308 16.9853C3.40311 16.984 3.47252 16.9573 3.52623 16.9103L3.73195 16.7103C4.12135 16.3342 4.64794 16.1231 5.1968 16.1231C5.74567 16.1231 6.27226 16.3342 6.66166 16.7103L6.86737 16.9103C6.91685 16.958 6.98365 16.985 7.05337 16.9853H7.06195C7.13426 16.984 7.20366 16.9573 7.25737 16.9103L7.47595 16.6978C7.8639 16.3256 8.38719 16.1172 8.93223 16.1178C9.50309 16.1178 10.0191 16.3419 10.3945 16.7036L10.5951 16.8986C10.6474 16.948 10.7168 16.9768 10.7897 16.9794C10.862 16.9781 10.9322 16.9515 10.9859 16.9044L11.1865 16.7094C11.5759 16.3334 12.1025 16.1223 12.6514 16.1223C13.2002 16.1223 13.7268 16.3334 14.1162 16.7094L14.3219 16.9094C14.3699 16.9553 14.4351 16.9844 14.5079 16.9844H14.5174C14.5897 16.9831 14.6582 16.9565 14.7119 16.9094L14.9177 16.7094C15.1158 16.517 15.3524 16.3661 15.6128 16.2661L15.6265 16.2611C15.6445 16.2261 15.6677 16.1986 15.6857 16.1636L17.8182 11.9361C17.8496 11.8719 17.8623 11.8006 17.8549 11.73C17.8475 11.6593 17.8203 11.5919 17.7762 11.5353L17.7771 11.5361C17.7314 11.4796 17.6702 11.4368 17.6007 11.4125C17.5311 11.3882 17.4559 11.3834 17.3837 11.3986L17.3862 11.3978L2.24395 14.5911C2.17602 14.6058 2.1122 14.6347 2.05689 14.6758C2.00157 14.7169 1.95609 14.7691 1.92357 14.8289C1.89105 14.8887 1.87228 14.9547 1.86854 15.0223C1.86481 15.0898 1.87621 15.1574 1.90195 15.2203L1.90109 15.2169L2.38537 16.4119C2.68195 16.5328 2.9348 16.7003 3.14737 16.9061C3.16649 16.9307 3.19123 16.9507 3.21964 16.9644C3.24805 16.9782 3.27936 16.9853 3.31109 16.9853L3.33252 16.9844L3.3308 16.9853ZM17.5037 18.7428C17.2122 18.4619 16.8119 18.2894 16.3697 18.2894C15.9274 18.2894 15.5262 18.4628 15.2357 18.7436L15.0299 18.9436C14.8915 19.0766 14.7047 19.1511 14.5101 19.1511C14.3155 19.1511 14.1287 19.0766 13.9902 18.9436L13.7845 18.7436C13.4931 18.4628 13.0928 18.2903 12.6505 18.2903C12.2082 18.2903 11.8071 18.4636 11.5165 18.7444L11.3159 18.9394C11.1778 19.072 10.9915 19.1463 10.7974 19.1461H10.7922C10.6959 19.1462 10.6006 19.1274 10.512 19.0909C10.4233 19.0544 10.3431 19.0009 10.2762 18.9336L10.0748 18.7378C9.7722 18.4463 9.36332 18.283 8.93737 18.2836C8.4968 18.2836 8.09823 18.4544 7.80595 18.7319L7.58737 18.9444C7.44892 19.0774 7.26214 19.152 7.06752 19.152C6.87289 19.152 6.68611 19.0774 6.54766 18.9444L6.34195 18.7444C6.05052 18.4636 5.65023 18.2903 5.20709 18.2903C4.76395 18.2903 4.36366 18.4636 4.07223 18.7444L3.86652 18.9444C3.72806 19.0774 3.54128 19.152 3.34666 19.152C3.15204 19.152 2.96526 19.0774 2.8268 18.9444C2.48223 18.6144 2.00823 18.4103 1.48537 18.4103C0.962516 18.4103 0.489374 18.6144 0.143945 18.9444C0.102998 18.9836 0.0704774 19.0303 0.0482791 19.0818C0.0260807 19.1333 0.0146484 19.1886 0.0146484 19.2444C0.0146484 19.3003 0.0260807 19.3556 0.0482791 19.4071C0.0704774 19.4586 0.102998 19.5053 0.143945 19.5444C0.225146 19.6241 0.335445 19.6693 0.450802 19.6703H0.454231C0.567831 19.6706 0.676937 19.6271 0.757659 19.5494C0.852924 19.4563 0.966182 19.3824 1.09092 19.332C1.21566 19.2815 1.34942 19.2556 1.48452 19.2556C1.61961 19.2556 1.75337 19.2815 1.87811 19.332C2.00285 19.3824 2.11611 19.4563 2.21137 19.5494C2.5028 19.8294 2.90309 20.0028 3.34537 20.0028C3.78766 20.0028 4.1888 19.8294 4.47937 19.5494L4.68509 19.3494C4.82354 19.2164 5.01032 19.1419 5.20495 19.1419C5.39957 19.1419 5.58635 19.2164 5.7248 19.3494L5.93052 19.5494C6.21852 19.8294 6.61623 20.0028 7.05595 20.0028H7.06537H7.06452H7.06709C7.50595 20.0028 7.90366 19.8319 8.19337 19.5544L8.41795 19.3419C8.5564 19.2089 8.74318 19.1344 8.9378 19.1344C9.13242 19.1344 9.31921 19.2089 9.45766 19.3419L9.65823 19.5369C9.94794 19.8203 10.3491 19.9953 10.7922 19.9961H10.8017C11.2414 19.9961 11.6391 19.8228 11.9262 19.5428L12.1268 19.3478C12.2653 19.2148 12.452 19.1402 12.6467 19.1402C12.8413 19.1402 13.0281 19.2148 13.1665 19.3478L13.3722 19.5478C13.6637 19.8278 14.0639 20.0011 14.5062 20.0011C14.9485 20.0011 15.3497 19.8278 15.6402 19.5478L15.8459 19.3478C15.9844 19.2148 16.1712 19.1402 16.3658 19.1402C16.5604 19.1402 16.7472 19.2148 16.8857 19.3478C16.9637 19.4228 17.0708 19.4686 17.1899 19.4686H17.1994C17.2558 19.4686 17.3117 19.4574 17.3635 19.4358C17.4154 19.4142 17.4622 19.3825 17.5011 19.3428C17.5425 19.304 17.5754 19.2575 17.598 19.206C17.6205 19.1546 17.6321 19.0993 17.6322 19.0434C17.6323 18.9874 17.6208 18.9321 17.5984 18.8806C17.576 18.8291 17.5432 18.7825 17.5019 18.7436L17.5037 18.7428Z" fill="#0083BB"/>
</svg>
