<svg width="60" height="60" viewBox="0 0 60 60" fill="none" xmlns="http://www.w3.org/2000/svg">
<rect width="60" height="60" rx="5" fill="#0083BB"/>
<path fill-rule="evenodd" clip-rule="evenodd" d="M41.3333 17.25H18.6666C17.1083 17.25 15.8333 18.525 15.8333 20.0833V39.9167C15.8333 41.475 17.1083 42.75 18.6666 42.75H41.3333C42.8916 42.75 44.1666 41.475 44.1666 39.9167V20.0833C44.1666 18.525 42.8916 17.25 41.3333 17.25ZM25.7499 37.0833H21.4999C20.7208 37.0833 20.0833 36.4458 20.0833 35.6667C20.0833 34.8875 20.7208 34.25 21.4999 34.25H25.7499C26.5291 34.25 27.1666 34.8875 27.1666 35.6667C27.1666 36.4458 26.5291 37.0833 25.7499 37.0833ZM25.7499 31.4167H21.4999C20.7208 31.4167 20.0833 30.7792 20.0833 30C20.0833 29.2208 20.7208 28.5833 21.4999 28.5833H25.7499C26.5291 28.5833 27.1666 29.2208 27.1666 30C27.1666 30.7792 26.5291 31.4167 25.7499 31.4167ZM25.7499 25.75H21.4999C20.7208 25.75 20.0833 25.1125 20.0833 24.3333C20.0833 23.5542 20.7208 22.9167 21.4999 22.9167H25.7499C26.5291 22.9167 27.1666 23.5542 27.1666 24.3333C27.1666 25.1125 26.5291 25.75 25.7499 25.75ZM39.4916 28.7533L35.0008 33.2442C34.4483 33.7967 33.5416 33.7967 32.9891 33.2442L30.9916 31.2325C30.8604 31.1013 30.7564 30.9456 30.6854 30.7743C30.6144 30.6029 30.5779 30.4192 30.5779 30.2337C30.5779 30.0483 30.6144 29.8646 30.6854 29.6932C30.7564 29.5219 30.8604 29.3662 30.9916 29.235C31.1227 29.1038 31.2784 28.9998 31.4498 28.9288C31.6212 28.8578 31.8048 28.8213 31.9903 28.8213C32.1758 28.8213 32.3595 28.8578 32.5309 28.9288C32.7022 28.9998 32.8579 29.1038 32.9891 29.235L33.9949 30.2408L37.4941 26.7417C37.6251 26.6103 37.7808 26.5061 37.9522 26.4351C38.1236 26.364 38.3073 26.3274 38.4928 26.3274C38.6784 26.3274 38.8621 26.364 39.0335 26.4351C39.2048 26.5061 39.3605 26.6103 39.4916 26.7417L39.5058 26.7558C40.0441 27.3083 40.0441 28.215 39.4916 28.7533Z" fill="white"/>
</svg>
