<svg width="18" height="18" viewBox="0 0 18 18" fill="none" xmlns="http://www.w3.org/2000/svg">
<path d="M8.10329 1.28147C8.47013 0.538306 9.52987 0.538306 9.89671 1.28147L11.8576 5.25393C12.0031 5.54878 12.2843 5.75324 12.6096 5.8008L16.9962 6.44196C17.8161 6.5618 18.1429 7.56965 17.5493 8.14781L14.3768 11.2379C14.1409 11.4676 14.0333 11.7987 14.0889 12.1233L14.8374 16.4875C14.9775 17.3044 14.12 17.9274 13.3864 17.5416L9.46545 15.4796C9.17407 15.3264 8.82593 15.3264 8.53455 15.4796L4.61363 17.5416C3.88 17.9274 3.02245 17.3044 3.16257 16.4875L3.91109 12.1233C3.96675 11.7987 3.85908 11.4676 3.62321 11.2379L0.450678 8.14781C-0.142915 7.56964 0.183869 6.5618 1.00378 6.44196L5.39037 5.8008C5.71572 5.75324 5.99691 5.54878 6.14245 5.25393L8.10329 1.28147Z" fill="#F69E18"/>
</svg>
