<svg width="35" height="35" viewBox="0 0 35 35" fill="none" xmlns="http://www.w3.org/2000/svg">
<circle cx="17.5" cy="17.5" r="17.5" fill="white"/>
<path d="M17.5 11.0186C13.9223 11.0186 11.0186 13.9223 11.0186 17.5C11.0186 21.0778 13.9223 23.9815 17.5 23.9815C21.0778 23.9815 23.9815 21.0778 23.9815 17.5C23.9815 13.9223 21.0778 11.0186 17.5 11.0186ZM20.5074 15.426C20.4102 16.45 19.9889 18.9389 19.775 20.0861C19.6843 20.5723 19.5028 20.7343 19.3343 20.7537C18.9584 20.7861 18.6732 20.5074 18.3102 20.2676C17.7399 19.8917 17.4158 19.6584 16.8649 19.2954C16.2232 18.8741 16.638 18.6408 17.0074 18.2649C17.1047 18.1676 18.7639 16.6574 18.7963 16.5213C18.8008 16.5007 18.8002 16.4793 18.7946 16.459C18.7889 16.4387 18.7784 16.42 18.7639 16.4047C18.725 16.3723 18.6732 16.3852 18.6278 16.3917C18.5695 16.4047 17.6621 17.0074 15.8926 18.2C15.6334 18.375 15.4 18.4658 15.1926 18.4593C14.9593 18.4528 14.5186 18.3297 14.188 18.2195C13.7797 18.0899 13.4621 18.0186 13.488 17.7917C13.501 17.675 13.663 17.5584 13.9676 17.4352C15.8602 16.6121 17.1176 16.0676 17.7463 15.8084C19.5482 15.0565 19.9176 14.9269 20.1639 14.9269C20.2158 14.9269 20.3389 14.9399 20.4167 15.0047C20.4815 15.0565 20.501 15.1278 20.5074 15.1797C20.501 15.2186 20.5139 15.3352 20.5074 15.426Z" fill="#0083BB"/>
</svg>
