<svg width="31" height="30" viewBox="0 0 31 30" fill="none" xmlns="http://www.w3.org/2000/svg">
<path d="M15.5 0C7.22 0 0.5 6.72 0.5 15C0.5 23.28 7.22 30 15.5 30C23.78 30 30.5 23.28 30.5 15C30.5 6.72 23.78 0 15.5 0ZM22.46 10.2C22.235 12.57 21.26 18.33 20.765 20.985C20.555 22.11 20.135 22.485 19.745 22.53C18.875 22.605 18.215 21.96 17.375 21.405C16.055 20.535 15.305 19.995 14.03 19.155C12.545 18.18 13.505 17.64 14.36 16.77C14.585 16.545 18.425 13.05 18.5 12.735C18.5104 12.6873 18.509 12.6378 18.496 12.5907C18.4829 12.5437 18.4585 12.5005 18.425 12.465C18.335 12.39 18.215 12.42 18.11 12.435C17.975 12.465 15.875 13.86 11.78 16.62C11.18 17.025 10.64 17.235 10.16 17.22C9.62 17.205 8.6 16.92 7.835 16.665C6.89 16.365 6.155 16.2 6.215 15.675C6.245 15.405 6.62 15.135 7.325 14.85C11.705 12.945 14.615 11.685 16.07 11.085C20.24 9.345 21.095 9.045 21.665 9.045C21.785 9.045 22.07 9.075 22.25 9.225C22.4 9.345 22.445 9.51 22.46 9.63C22.445 9.72 22.475 9.99 22.46 10.2Z" fill="white"/>
</svg>
