<svg width="30" height="30" viewBox="0 0 30 30" fill="none" xmlns="http://www.w3.org/2000/svg">
<circle cx="15" cy="15" r="15" fill="#0083BB"/>
<path d="M14.9999 9.44434C11.9332 9.44434 9.44434 11.9332 9.44434 14.9999C9.44434 18.0666 11.9332 20.5554 14.9999 20.5554C18.0666 20.5554 20.5554 18.0666 20.5554 14.9999C20.5554 11.9332 18.0666 9.44434 14.9999 9.44434ZM17.5777 13.2221C17.4943 14.0999 17.1332 16.2332 16.9499 17.2166C16.8721 17.6332 16.7166 17.7721 16.5721 17.7888C16.2499 17.8166 16.0054 17.5777 15.6943 17.3721C15.2054 17.0499 14.9277 16.8499 14.4554 16.5388C13.9054 16.1777 14.261 15.9777 14.5777 15.6554C14.661 15.5721 16.0832 14.2777 16.111 14.161C16.1149 14.1433 16.1143 14.125 16.1095 14.1076C16.1047 14.0901 16.0956 14.0742 16.0832 14.061C16.0499 14.0332 16.0054 14.0443 15.9666 14.0499C15.9166 14.061 15.1388 14.5777 13.6221 15.5999C13.3999 15.7499 13.1999 15.8277 13.0221 15.8221C12.8221 15.8166 12.4443 15.711 12.161 15.6166C11.811 15.5054 11.5388 15.4443 11.561 15.2499C11.5721 15.1499 11.711 15.0499 11.9721 14.9443C13.5943 14.2388 14.6721 13.7721 15.211 13.5499C16.7554 12.9054 17.0721 12.7943 17.2832 12.7943C17.3277 12.7943 17.4332 12.8054 17.4999 12.861C17.5554 12.9054 17.5721 12.9666 17.5777 13.011C17.5721 13.0443 17.5832 13.1443 17.5777 13.2221Z" fill="white"/>
</svg>
