<svg width="60" height="60" viewBox="0 0 60 60" fill="none" xmlns="http://www.w3.org/2000/svg">
<rect width="60" height="60" rx="5" fill="#0083BB"/>
<g clip-path="url(#clip0_309_837)">
<path d="M23 28.5L22 31.6H24L23 28.5Z" fill="white"/>
<path d="M42.3 15H26.3V20H30.3V22H17.3C15.6 22 14.3 23.3 14.3 25V36C14.3 37.7 15.6 39 17.3 39H18.3V44.1L24.6 39H31.3V32H42.3C44 32 45.3 30.7 45.3 29V18C45.3 16.3 44 15 42.3 15ZM25.1 34.9L24.6 33.3H21.5L20.9 34.9H18.5L21.8 26H24.2L27.5 34.9H25.1ZM40.3 27V29C39 29 37.6 28.6 36.4 28C35.2 28.6 33.8 28.9 32.4 29L32.3 27C33 27 33.7 26.9 34.4 26.7C33.5 25.8 32.9 24.7 32.6 23.5H34.7001C35 24.4 35.6 25.1 36.3 25.7C37.4 24.8 38.1 23.5 38.2001 22H32.2001V20H35.2001V18H37.2001V20H40.5L40.6 21C40.7001 23.1 39.9 25.2 38.4 26.7C39.1 26.9 39.7 27 40.3 27Z" fill="white"/>
</g>
<defs>
<clipPath id="clip0_309_837">
<rect width="36" height="36" fill="white" transform="translate(12 12)"/>
</clipPath>
</defs>
</svg>
