<svg width="43" height="43" viewBox="0 0 43 43" fill="none" xmlns="http://www.w3.org/2000/svg">
<circle cx="21.5" cy="21.5" r="21.5" fill="#0083BB"/>
<path fill-rule="evenodd" clip-rule="evenodd" d="M20.9502 27.2999H21.9931C21.9931 27.2999 22.3059 27.2462 22.4624 27.085C22.6188 26.9239 22.6188 26.6016 22.6188 26.6016C22.6188 26.6016 22.6188 25.2048 23.2445 24.9899C23.8702 24.775 24.7045 26.3867 25.5387 26.9776C26.1645 27.4611 26.6337 27.3537 26.6337 27.3537L28.928 27.2999C28.928 27.2999 30.1272 27.2462 29.5537 26.2255C29.5015 26.1718 29.2408 25.5271 27.833 24.1841C26.373 22.7873 26.5816 23.0559 28.3023 20.6384C29.3451 19.1879 29.7623 18.3284 29.658 17.8986C29.5537 17.5225 28.7716 17.63 28.7716 17.63H26.1645C26.1645 17.63 25.9559 17.5762 25.8516 17.6837C25.6952 17.7911 25.643 17.9523 25.643 17.9523C25.643 17.9523 25.2259 19.0805 24.7045 20.0475C23.5574 22.0352 23.0881 22.1426 22.9316 22.0352C22.5145 21.7666 22.6188 20.8533 22.6188 20.2624C22.6188 18.3284 22.9316 17.5225 22.0452 17.3076C21.7845 17.2539 21.576 17.2002 20.846 17.2002C19.9074 17.2002 19.1253 17.2002 18.7081 17.4151C18.3953 17.5762 18.1867 17.8986 18.3431 17.8986C18.4996 17.8986 18.9167 18.006 19.1253 18.2746C19.3338 18.7581 19.3338 19.564 19.3338 19.564C19.3338 19.564 19.4903 21.874 18.9689 22.1426C18.6039 22.3575 18.1346 21.9277 17.0917 20.1012C16.5703 19.1879 16.1532 18.1135 16.1532 18.1135C16.1532 18.1135 16.101 17.8986 15.9446 17.7911C15.7882 17.6837 15.5275 17.63 15.5275 17.63H13.0768C13.0768 17.63 12.7118 17.63 12.5554 17.7911C12.4511 17.9523 12.5554 18.2209 12.5554 18.2209C12.5554 18.2209 14.4846 22.841 16.6746 25.2048C18.7081 27.4611 20.9502 27.2999 20.9502 27.2999Z" fill="white"/>
</svg>
