<svg width="40" height="40" viewBox="0 0 40 40" fill="none" xmlns="http://www.w3.org/2000/svg">
<rect width="40" height="40" rx="5" fill="#0083BB"/>
<path d="M13.5206 12.9287C12.7392 12.9287 11.9898 13.2391 11.4372 13.7917C10.8846 14.3443 10.5742 15.0937 10.5742 15.8751V16.4644H29.4282V15.8751C29.4282 15.0937 29.1178 14.3443 28.5652 13.7917C28.0127 13.2391 27.2632 12.9287 26.4818 12.9287H13.5206ZM10.5742 24.1251V17.643H29.4282V24.1251C29.4282 24.9066 29.1178 25.656 28.5652 26.2086C28.0127 26.7611 27.2632 27.0716 26.4818 27.0716H13.5214C12.74 27.0716 11.9906 26.7611 11.438 26.2086C10.8854 25.656 10.575 24.9066 10.575 24.1251M23.3389 21.9644C23.1826 21.9644 23.0328 22.0265 22.9222 22.137C22.8117 22.2475 22.7496 22.3974 22.7496 22.5537C22.7496 22.71 22.8117 22.8599 22.9222 22.9704C23.0328 23.0809 23.1826 23.143 23.3389 23.143H26.0889C26.2452 23.143 26.3951 23.0809 26.5056 22.9704C26.6161 22.8599 26.6782 22.71 26.6782 22.5537C26.6782 22.3974 26.6161 22.2475 26.5056 22.137C26.3951 22.0265 26.2452 21.9644 26.0889 21.9644H23.3389Z" fill="white"/>
</svg>
