<svg width="40" height="40" viewBox="0 0 40 40" fill="none" xmlns="http://www.w3.org/2000/svg">
<circle cx="20" cy="20" r="20" fill="#0083BB"/>
<g clip-path="url(#clip0_327_2333)">
<path d="M16.1111 19.167L15.5555 20.8892H16.6667L16.1111 19.167Z" fill="white"/>
<path d="M26.8333 11.667H17.9444V14.4448H20.1667V15.5559H12.9444C12 15.5559 11.2778 16.2781 11.2778 17.2225V23.3337C11.2778 24.2781 12 25.0003 12.9444 25.0003H13.5V27.8337L17 25.0003H20.7222V21.1114H26.8333C27.7778 21.1114 28.5 20.3892 28.5 19.4448V13.3337C28.5 12.3892 27.7778 11.667 26.8333 11.667ZM17.2778 22.7225L17 21.8337H15.2778L14.9444 22.7225H13.6111L15.4444 17.7781H16.7778L18.6111 22.7225H17.2778ZM25.7222 18.3337V19.4448C25 19.4448 24.2222 19.2225 23.5555 18.8892C22.8889 19.2225 22.1111 19.3892 21.3333 19.4448L21.2778 18.3337C21.6667 18.3337 22.0555 18.2781 22.4444 18.167C21.9444 17.667 21.6111 17.0559 21.4444 16.3892H22.6111C22.7778 16.8892 23.1111 17.2781 23.5 17.6114C24.1111 17.1114 24.5 16.3892 24.5555 15.5559H21.2222V14.4448H22.8889V13.3337H24V14.4448H25.8333L25.8889 15.0003C25.9444 16.167 25.5 17.3337 24.6667 18.167C25.0555 18.2781 25.3889 18.3337 25.7222 18.3337Z" fill="white"/>
</g>
<defs>
<clipPath id="clip0_327_2333">
<rect width="20" height="20" fill="white" transform="translate(10 10)"/>
</clipPath>
</defs>
</svg>
