<svg width="40" height="40" viewBox="0 0 40 40" fill="none" xmlns="http://www.w3.org/2000/svg">
<g clip-path="url(#clip0_2229_94)">
<path d="M20 0C8.95667 0 0 8.95667 0 20C0 31.0433 8.95667 40 20 40C31.0433 40 40 31.0433 40 20C40 8.95667 31.0483 0 20 0ZM9.86667 20.6717L9.95167 20.5367L15.1567 12.3967C15.1741 12.3699 15.1984 12.3483 15.227 12.3342C15.2556 12.32 15.2876 12.3138 15.3194 12.3162C15.3512 12.3186 15.3819 12.3295 15.4081 12.3477C15.4343 12.366 15.4551 12.3909 15.4683 12.42C16.335 14.3683 17.0883 16.7917 16.735 18.3C16.5883 18.92 16.1767 19.76 15.7117 20.5367C15.652 20.6503 15.5869 20.761 15.5167 20.8683C15.4998 20.8923 15.4773 20.9117 15.4511 20.9248C15.4249 20.9379 15.3959 20.9442 15.3667 20.9433H10.0217C9.98976 20.9438 9.95832 20.9357 9.93068 20.9197C9.90304 20.9038 9.88023 20.8807 9.86468 20.8528C9.84913 20.8249 9.84141 20.7934 9.84234 20.7615C9.84328 20.7296 9.85284 20.6986 9.87 20.6717H9.86667ZM33.0567 23.4717C33.0571 23.5072 33.047 23.5422 33.0278 23.5721C33.0085 23.602 32.9809 23.6256 32.9483 23.64C32.5433 23.8117 31.165 24.4483 30.5917 25.2433C29.1283 27.28 28.0117 30.1933 25.5117 30.1933H15.0883C14.2083 30.192 13.3371 30.0173 12.5246 29.6791C11.7121 29.341 10.9742 28.8461 10.3531 28.2226C9.73192 27.5991 9.23973 26.8594 8.90461 26.0456C8.5695 25.2319 8.39803 24.3601 8.4 23.48V23.36C8.4 23.2633 8.48 23.1833 8.58 23.1833H14.3883C14.505 23.1833 14.5883 23.2883 14.58 23.4033C14.5367 23.78 14.6083 24.1683 14.7883 24.52C15.1317 25.22 15.8483 25.6567 16.62 25.6567H19.4967V23.4117H16.65C16.6166 23.4113 16.584 23.4019 16.5556 23.3843C16.5272 23.3668 16.5042 23.3419 16.4889 23.3122C16.4737 23.2825 16.4668 23.2493 16.469 23.216C16.4713 23.1827 16.4826 23.1507 16.5017 23.1233L16.6067 22.9733C16.8733 22.5883 17.2583 21.9967 17.6417 21.32C17.9017 20.8633 18.155 20.3767 18.3583 19.8867C18.3983 19.8 18.43 19.7083 18.4667 19.62C18.5217 19.4633 18.5783 19.3167 18.6183 19.1717C18.6576 19.0487 18.6937 18.9248 18.7267 18.8C18.8217 18.3833 18.8617 17.9433 18.8617 17.4883C18.8617 17.3083 18.855 17.12 18.8383 16.9433C18.83 16.7483 18.805 16.5517 18.7817 16.3567C18.763 16.1822 18.7363 16.0087 18.7017 15.8367C18.6568 15.5747 18.6023 15.3146 18.5383 15.0567L18.515 14.9567C18.465 14.7767 18.4217 14.6067 18.365 14.4283C18.2063 13.8807 18.0239 13.3402 17.8183 12.8083C17.7467 12.6083 17.6678 12.4109 17.5817 12.2167C17.4617 11.92 17.3383 11.6517 17.2267 11.4C17.1711 11.2922 17.1189 11.1827 17.07 11.0717C17.0158 10.9519 16.9586 10.8335 16.8983 10.7167C16.8583 10.6283 16.81 10.5433 16.7783 10.4633L16.4267 9.81667C16.3783 9.72833 16.4583 9.62 16.555 9.64833L18.755 10.2433H18.7717L19.06 10.3267L19.38 10.4167L19.4967 10.4483V9.14333C19.4967 8.51167 20 8 20.6283 8C20.7767 7.9996 20.9236 8.02922 21.0602 8.08708C21.1969 8.14494 21.3204 8.22983 21.4233 8.33667C21.6361 8.5513 21.7559 8.84109 21.7567 9.14333V11.0833L21.9917 11.1483C22.0083 11.1567 22.0283 11.165 22.0433 11.1767C22.1 11.2167 22.1833 11.28 22.2883 11.36C22.3717 11.4233 22.46 11.5033 22.5633 11.5883C22.8924 11.8565 23.2116 12.1367 23.52 12.4283C23.8767 12.76 24.2767 13.1483 24.66 13.58C24.7683 13.7033 24.8717 13.8233 24.98 13.9567C25.0833 14.0883 25.2 14.2167 25.2967 14.3433C25.4283 14.5167 25.5633 14.6967 25.6883 14.8833C25.7433 14.9717 25.8117 15.0633 25.8633 15.1517C26.0233 15.3883 26.16 15.6317 26.2917 15.8767C26.3483 15.9883 26.4033 16.1117 26.4517 16.2317C26.6 16.56 26.7167 16.8917 26.7883 17.2283C26.812 17.2998 26.8282 17.3735 26.8367 17.4483V17.465C26.86 17.56 26.8683 17.665 26.8767 17.7717C26.9236 18.2643 26.8633 18.7612 26.7 19.2283C26.6483 19.3683 26.6 19.5117 26.5367 19.6517C26.4117 19.935 26.2683 20.2233 26.0967 20.4883C26.04 20.5883 25.9717 20.6917 25.9083 20.7917C25.8367 20.8967 25.76 20.9967 25.6967 21.0917C25.605 21.2179 25.5088 21.3407 25.4083 21.46C25.32 21.58 25.2317 21.7 25.1317 21.8083C24.9967 21.9717 24.865 22.125 24.7233 22.2717C24.6433 22.3683 24.5567 22.4683 24.4633 22.555C24.3767 22.655 24.2833 22.7433 24.2033 22.8233C24.0633 22.9633 23.9533 23.0683 23.8567 23.16L23.6283 23.3633C23.5965 23.3952 23.5534 23.4132 23.5083 23.4133H21.7567V25.6567H23.96C24.4517 25.6567 24.92 25.4833 25.3 25.16C25.4283 25.0483 25.9917 24.56 26.66 23.8233C26.6818 23.7983 26.711 23.7807 26.7433 23.7733L32.8267 22.0117C32.8534 22.0039 32.8815 22.0025 32.9089 22.0075C32.9362 22.0125 32.9621 22.0237 32.9843 22.0403C33.0066 22.057 33.0247 22.0785 33.0373 22.1033C33.0498 22.1281 33.0565 22.1555 33.0567 22.1833V23.4717Z" fill="#0083BB"/>
</g>
<defs>
<clipPath id="clip0_2229_94">
<rect width="40" height="40" fill="white"/>
</clipPath>
</defs>
</svg>
