<svg width="40" height="40" viewBox="0 0 40 40" fill="none" xmlns="http://www.w3.org/2000/svg">
<circle cx="20" cy="20" r="20" fill="#0083BB"/>
<path fill-rule="evenodd" clip-rule="evenodd" d="M19.9615 14.4662C19.2485 14.6535 18.6278 15.0933 18.2148 15.7039C18.1415 15.8185 18.046 15.9173 17.9338 15.9943C17.8217 16.0713 17.6952 16.1251 17.5619 16.1525C17.4287 16.1798 17.2912 16.1801 17.1578 16.1534C17.0244 16.1268 16.8977 16.0736 16.7852 15.9971C16.6727 15.9206 16.5766 15.8223 16.5027 15.7081C16.4289 15.5938 16.3786 15.4659 16.355 15.332C16.3314 15.198 16.3349 15.0606 16.3653 14.928C16.3957 14.7954 16.4524 14.6702 16.532 14.5598C16.9441 13.9527 17.4826 13.4419 18.1107 13.0624C18.7387 12.683 19.4414 12.4438 20.1705 12.3613C19.6595 12.0796 19.0656 11.9869 18.4931 12.0993C18.232 12.1426 17.9643 12.0826 17.7468 11.9319C17.5293 11.7812 17.379 11.5517 17.3278 11.2921C17.2767 11.0325 17.3286 10.7631 17.4726 10.5411C17.6167 10.3191 17.8415 10.162 18.0995 10.103C19.021 9.92125 19.9762 10.0311 20.8323 10.4174C21.6885 10.8036 22.403 11.447 22.8766 12.2581C23.7666 11.9257 24.7353 11.8653 25.6596 12.0848C26.5839 12.3042 27.4221 12.7935 28.0677 13.4904C28.1586 13.5884 28.2293 13.7034 28.2757 13.8287C28.3222 13.9541 28.3435 14.0874 28.3385 14.2209C28.3334 14.3545 28.3021 14.4858 28.2464 14.6073C28.1906 14.7288 28.1114 14.8381 28.0134 14.929C27.9154 15.0199 27.8004 15.0906 27.6751 15.137C27.5497 15.1835 27.4165 15.2048 27.2829 15.1998C27.1493 15.1947 27.018 15.1634 26.8965 15.1077C26.775 15.0519 26.6657 14.9727 26.5748 14.8747C26.1189 14.3819 25.4988 14.0726 24.8309 14.0048H24.8228C25.307 14.5294 25.6588 15.1621 25.8488 15.8503C26.0389 16.5385 26.0617 17.2621 25.9153 17.9608C25.8886 18.0924 25.8362 18.2175 25.761 18.3287C25.6859 18.44 25.5894 18.5353 25.4773 18.6091C25.3651 18.6829 25.2394 18.7338 25.1075 18.7589C24.9756 18.7839 24.8401 18.7826 24.7086 18.755C24.5772 18.7275 24.4526 18.6742 24.3419 18.5982C24.2311 18.5223 24.1365 18.4251 24.0635 18.3125C23.9905 18.1998 23.9405 18.0738 23.9163 17.9417C23.8922 17.8096 23.8945 17.6741 23.923 17.5428C24.0394 16.9866 23.9582 16.4071 23.6934 15.9042C23.4286 15.4014 22.9967 15.0066 22.4722 14.7878C21.8927 15.1828 21.4055 15.8315 21.035 16.7286C20.6658 17.6216 20.4378 18.7086 20.351 19.8934C21.1089 20.0878 21.8322 20.3982 22.4953 20.8136C23.547 21.465 24.4767 22.3743 25.2421 23.4736C24.735 23.5965 24.2942 23.9087 24.0098 24.3462C23.8931 24.5335 23.7723 24.6855 23.6543 24.8063C23.3976 25.0576 23.0526 25.1983 22.6934 25.1983C22.3342 25.1983 21.9892 25.0576 21.7326 24.8063C21.62 24.689 21.5182 24.5618 21.4285 24.4263C20.9033 23.6446 19.9954 23.4749 19.458 23.4749C18.9206 23.4749 18.0126 23.6446 17.4874 24.4263C17.3975 24.5617 17.2958 24.6888 17.1834 24.8063C16.9267 25.0576 16.5818 25.1983 16.2226 25.1983C15.8633 25.1983 15.5184 25.0576 15.2617 24.8063C15.1271 24.6657 15.0074 24.5115 14.9048 24.3462C14.4026 23.5496 13.5028 23.3826 12.9885 23.3826C12.7089 23.3826 12.3235 23.4315 11.9448 23.5998C12.7265 22.4421 13.6874 21.4908 14.7772 20.8136C15.8434 20.1385 17.0658 19.75 18.3261 19.6858C18.4279 18.3585 18.6912 17.0719 19.154 15.9509C19.3666 15.4273 19.6375 14.9292 19.9615 14.4662ZM13.9222 25.5934C13.8434 25.4094 13.7122 25.2526 13.5448 25.1428C13.3775 25.033 13.1814 24.975 12.9813 24.976C12.7811 24.977 12.5857 25.037 12.4194 25.1485C12.2532 25.26 12.1235 25.4181 12.0466 25.6029C11.9314 25.8804 11.7557 26.1288 11.5325 26.33C11.3092 26.5312 11.044 26.6801 10.756 26.766C10.6278 26.804 10.5084 26.8669 10.4046 26.9511C10.3008 27.0353 10.2146 27.1392 10.1509 27.2567C10.0872 27.3742 10.0472 27.5031 10.0333 27.636C10.0195 27.769 10.0319 27.9034 10.0699 28.0315C10.108 28.1597 10.1709 28.2791 10.2551 28.3829C10.3393 28.4867 10.4431 28.5729 10.5606 28.6366C10.6781 28.7003 10.8071 28.7403 10.94 28.7542C11.073 28.768 11.2073 28.7556 11.3355 28.7176C11.954 28.5335 12.5198 28.2046 12.9858 27.7581C13.2206 27.9874 13.4825 28.1896 13.7675 28.3606C15.1884 29.2129 17.2567 29.2129 18.6776 28.3606C18.9602 28.1913 19.2221 27.9895 19.458 27.7594C19.6928 27.9874 19.9533 28.1896 20.2383 28.3606C21.6593 29.2129 23.7275 29.2129 25.1485 28.3606C25.4335 28.1896 25.6954 27.9874 25.9302 27.7581L26.0211 27.8436C26.469 28.2466 27.0023 28.5452 27.5805 28.7162C27.8358 28.7825 28.107 28.7471 28.3368 28.6174C28.5665 28.4877 28.737 28.2739 28.8121 28.021C28.8873 27.7681 28.8613 27.4958 28.7396 27.2617C28.618 27.0276 28.4101 26.8499 28.16 26.766C27.872 26.6801 27.6067 26.5312 27.3835 26.33C27.1602 26.1288 26.9846 25.8804 26.8693 25.6029C26.7925 25.4181 26.6628 25.26 26.4965 25.1485C26.3303 25.037 26.1349 24.977 25.9347 24.976C25.7345 24.975 25.5385 25.033 25.3711 25.1428C25.2038 25.2526 25.0725 25.4094 24.9938 25.5934C24.8109 26.0194 24.4984 26.377 24.1008 26.6153C23.3245 27.0808 22.061 27.0808 21.286 26.6153C20.8883 26.3771 20.5758 26.0195 20.3931 25.5934C20.3144 25.4106 20.184 25.2548 20.0178 25.1454C19.8516 25.036 19.657 24.9776 19.458 24.9776C19.259 24.9776 19.0644 25.036 18.8982 25.1454C18.732 25.2548 18.6015 25.4106 18.5229 25.5934C18.3401 26.0195 18.0277 26.3771 17.6299 26.6153C16.8536 27.0808 15.5901 27.0808 14.8138 26.6153C14.4166 26.3769 14.1046 26.0193 13.9222 25.5934Z" fill="white"/>
</svg>
