<svg width="50" height="50" viewBox="0 0 50 50" fill="none" xmlns="http://www.w3.org/2000/svg">
<rect x="-0.000488281" width="50" height="50" rx="5" fill="#0083BB"/>
<path d="M13.8334 32.7961C13.8334 31.9281 14.537 31.2245 15.405 31.2245H28.9587C30.8835 31.2245 32.7682 30.6753 34.3917 29.6414L37.6719 27.5525C38.1412 27.2536 38.7274 27.2041 39.2403 27.42C40.4409 27.9256 40.6463 29.5401 39.6105 30.3302L35.5644 33.4164C34.7553 34.0335 33.7659 34.3678 32.7484 34.3678H15.405C14.537 34.3678 13.8334 33.6641 13.8334 32.7961Z" fill="white" stroke="white"/>
<line x1="22.8286" y1="22.6006" x2="22.8286" y2="30.8872" stroke="white"/>
<path d="M13.9023 22.1009H13.9017C14.1609 17.4912 17.981 13.833 22.6556 13.833C27.3302 13.833 31.1503 17.4912 31.4095 22.1009H31.4089H31.3995H31.39H31.3805H31.3708H31.3611H31.3514H31.3415H31.3316H31.3215H31.3114H31.3013H31.291H31.2807H31.2703H31.2598H31.2492H31.2385H31.2278H31.217H31.2062H31.1952H31.1842H31.1731H31.1619H31.1506H31.1393H31.1279H31.1164H31.1048H31.0932H31.0815H31.0697H31.0578H31.0459H31.0339H31.0218H31.0096H30.9974H30.985H30.9727H30.9602H30.9477H30.9351H30.9224H30.9096H30.8968H30.8839H30.8709H30.8579H30.8447H30.8315H30.8183H30.8049H30.7915H30.778H30.7645H30.7508H30.7372H30.7234H30.7095H30.6956H30.6816H30.6676H30.6535H30.6393H30.625H30.6107H30.5962H30.5818H30.5672H30.5526H30.5379H30.5232H30.5083H30.4934H30.4785H30.4634H30.4483H30.4332H30.4179H30.4026H30.3872H30.3718H30.3563H30.3407H30.3251H30.3093H30.2936H30.2777H30.2618H30.2458H30.2298H30.2136H30.1975H30.1812H30.1649H30.1485H30.1321H30.1155H30.099H30.0823H30.0656H30.0488H30.032H30.0151H29.9981H29.9811H29.964H29.9468H29.9296H29.9123H29.8949H29.8775H29.86H29.8425H29.8249H29.8072H29.7894H29.7716H29.7538H29.7358H29.7179H29.6998H29.6817H29.6635H29.6453H29.627H29.6086H29.5902H29.5717H29.5532H29.5345H29.5159H29.4972H29.4784H29.4595H29.4406H29.4216H29.4026H29.3835H29.3644H29.3451H29.3259H29.3065H29.2872H29.2677H29.2482H29.2286H29.209H29.1893H29.1696H29.1498H29.1299H29.11H29.09H29.07H29.0499H29.0298H29.0096H28.9893H28.969H28.9486H28.9282H28.9077H28.8871H28.8665H28.8459H28.8252H28.8044H28.7836H28.7627H28.7418H28.7208H28.6997H28.6786H28.6575H28.6362H28.615H28.5937H28.5723H28.5509H28.5294H28.5078H28.4862H28.4646H28.4429H28.4212H28.3993H28.3775H28.3556H28.3336H28.3116H28.2895H28.2674H28.2452H28.223H28.2007H28.1784H28.156H28.1336H28.1111H28.0886H28.066H28.0434H28.0207H27.9979H27.9752H27.9523H27.9294H27.9065H27.8835H27.8605H27.8374H27.8142H27.7911H27.7678H27.7445H27.7212H27.6978H27.6744H27.6509H27.6274H27.6038H27.5802H27.5565H27.5328H27.509H27.4852H27.4614H27.4374H27.4135H27.3895H27.3654H27.3413H27.3172H27.293H27.2688H27.2445H27.2202H27.1958H27.1714H27.1469H27.1224H27.0978H27.0732H27.0486H27.0239H26.9992H26.9744H26.9496H26.9247H26.8998H26.8748H26.8498H26.8248H26.7997H26.7746H26.7494H26.7242H26.6989H26.6736H26.6483H26.6229H26.5975H26.572H26.5465H26.5209H26.4953H26.4697H26.444H26.4183H26.3925H26.3667H26.3409H26.315H26.2891H26.2631H26.2371H26.211H26.185H26.1588H26.1327H26.1064H26.0802H26.0539H26.0276H26.0012H25.9748H25.9484H25.9219H25.8954H25.8688H25.8422H25.8156H25.7889H25.7622H25.7355H25.7087H25.6819H25.655H25.6281H25.6012H25.5742H25.5472H25.5201H25.4931H25.4659H25.4388H25.4116H25.3844H25.3571H25.3298H25.3025H25.2751H25.2477H25.2203H25.1928H25.1653H25.1378H25.1102H25.0826H25.0549H25.0273H24.9995H24.9718H24.944H24.9162H24.8884H24.8605H24.8326H24.8046H24.7767H24.7486H24.7206H24.6925H24.6644H24.6363H24.6081H24.5799H24.5517H24.5234H24.4951H24.4668H24.4384H24.41H24.3816H24.3532H24.3247H24.2962H24.2676H24.2391H24.2105H24.1818H24.1532H24.1245H24.0958H24.067H24.0382H24.0094H23.9806H23.9517H23.9228H23.8939H23.865H23.836H23.807H23.778H23.7489H23.7198H23.6907H23.6616H23.6324H23.6032H23.574H23.5447H23.5154H23.4861H23.4568H23.4275H23.3981H23.3687H23.3393H23.3098H23.2803H23.2508H23.2213H23.1917H23.1621H23.1325H23.1029H23.0732H23.0436H23.0139H22.9841H22.9544H22.9246H22.8948H22.865H22.8351H22.8053H22.7754H22.7455H22.7155H22.6856H22.6556H22.6256H22.5957H22.5657H22.5358H22.5059H22.4761H22.4462H22.4164H22.3866H22.3568H22.3271H22.2973H22.2676H22.238H22.2083H22.1787H22.1491H22.1195H22.0899H22.0604H22.0309H22.0014H21.972H21.9425H21.9131H21.8837H21.8544H21.8251H21.7958H21.7665H21.7372H21.708H21.6788H21.6497H21.6205H21.5914H21.5623H21.5332H21.5042H21.4752H21.4462H21.4173H21.3884H21.3595H21.3306H21.3018H21.273H21.2442H21.2154H21.1867H21.158H21.1294H21.1007H21.0721H21.0436H21.015H20.9865H20.958H20.9296H20.9012H20.8728H20.8444H20.8161H20.7878H20.7595H20.7313H20.7031H20.6749H20.6468H20.6187H20.5906H20.5626H20.5346H20.5066H20.4786H20.4507H20.4228H20.395H20.3672H20.3394H20.3117H20.284H20.2563H20.2286H20.201H20.1734H20.1459H20.1184H20.0909H20.0635H20.0361H20.0087H19.9814H19.9541H19.9268H19.8996H19.8724H19.8453H19.8182H19.7911H19.764H19.737H19.7101H19.6831H19.6562H19.6294H19.6025H19.5758H19.549H19.5223H19.4956H19.469H19.4424H19.4158H19.3893H19.3628H19.3364H19.31H19.2836H19.2573H19.231H19.2048H19.1786H19.1524H19.1263H19.1002H19.0741H19.0481H19.0221H18.9962H18.9703H18.9445H18.9187H18.8929H18.8672H18.8415H18.8159H18.7903H18.7647H18.7392H18.7137H18.6883H18.6629H18.6376H18.6123H18.587H18.5618H18.5366H18.5115H18.4864H18.4614H18.4364H18.4114H18.3865H18.3616H18.3368H18.312H18.2873H18.2626H18.238H18.2134H18.1888H18.1643H18.1398H18.1154H18.091H18.0667H18.0424H18.0182H17.994H17.9699H17.9458H17.9217H17.8977H17.8738H17.8499H17.826H17.8022H17.7784H17.7547H17.731H17.7074H17.6838H17.6603H17.6368H17.6134H17.59H17.5667H17.5434H17.5202H17.497H17.4738H17.4507H17.4277H17.4047H17.3818H17.3589H17.3361H17.3133H17.2905H17.2678H17.2452H17.2226H17.2001H17.1776H17.1552H17.1328H17.1105H17.0882H17.066H17.0438H17.0217H16.9996H16.9776H16.9556H16.9337H16.9119H16.8901H16.8683H16.8466H16.825H16.8034H16.7818H16.7604H16.7389H16.7176H16.6962H16.675H16.6538H16.6326H16.6115H16.5904H16.5695H16.5485H16.5276H16.5068H16.486H16.4653H16.4447H16.4241H16.4035H16.383H16.3626H16.3422H16.3219H16.3017H16.2814H16.2613H16.2412H16.2212H16.2012H16.1813H16.1614H16.1416H16.1219H16.1022H16.0826H16.063H16.0435H16.0241H16.0047H15.9853H15.9661H15.9469H15.9277H15.9086H15.8896H15.8706H15.8517H15.8328H15.8141H15.7953H15.7767H15.7581H15.7395H15.721H15.7026H15.6842H15.6659H15.6477H15.6295H15.6114H15.5934H15.5754H15.5574H15.5396H15.5218H15.504H15.4864H15.4687H15.4512H15.4337H15.4163H15.3989H15.3816H15.3644H15.3472H15.3301H15.3131H15.2961H15.2792H15.2624H15.2456H15.2289H15.2123H15.1957H15.1792H15.1627H15.1463H15.13H15.1138H15.0976H15.0815H15.0654H15.0494H15.0335H15.0177H15.0019H14.9862H14.9705H14.9549H14.9394H14.924H14.9086H14.8933H14.878H14.8629H14.8478H14.8327H14.8178H14.8029H14.7881H14.7733H14.7586H14.744H14.7294H14.715H14.7006H14.6862H14.672H14.6578H14.6436H14.6296H14.6156H14.6017H14.5878H14.5741H14.5604H14.5467H14.5332H14.5197H14.5063H14.4929H14.4797H14.4665H14.4534H14.4403H14.4273H14.4144H14.4016H14.3888H14.3762H14.3635H14.351H14.3386H14.3262H14.3139H14.3016H14.2894H14.2774H14.2653H14.2534H14.2415H14.2297H14.218H14.2064H14.1948H14.1833H14.1719H14.1606H14.1493H14.1382H14.127H14.116H14.1051H14.0942H14.0834H14.0727H14.062H14.0515H14.041H14.0305H14.0202H14.01H13.9998H13.9897H13.9797H13.9697H13.9599H13.9501H13.9404H13.9307H13.9212H13.9117H13.9023Z" fill="white" stroke="white"/>
<path d="M20.8814 14.0518C19.9001 15.5964 17.9272 18.7644 20.2823 22.0791" stroke="white" stroke-linecap="round"/>
<path d="M24.2361 14.0518C25.2174 15.5964 27.0705 18.7644 24.7154 22.0791" stroke="white" stroke-linecap="round"/>
<path d="M33.7443 36.8392C33.8397 37.0983 34.1272 37.231 34.3863 37.1355C34.6454 37.0401 34.7781 36.7526 34.6826 36.4935L33.7443 36.8392ZM32.981 34.7676L33.7443 36.8392L34.6826 36.4935L33.9194 34.4219L32.981 34.7676Z" fill="white"/>
<path d="M15.1655 36.8392C15.0701 37.0983 14.7826 37.231 14.5235 37.1355C14.2644 37.0401 14.1317 36.7526 14.2272 36.4935L15.1655 36.8392ZM15.9288 34.7676L15.1655 36.8392L14.2272 36.4935L14.9904 34.4219L15.9288 34.7676Z" fill="white"/>
</svg>
